<svg width="25" height="24" viewBox="0 0 25 24" fill="none" xmlns="http://www.w3.org/2000/svg">
<path opacity="0.4" d="M12.0996 13.112C15.2062 13.112 17.7246 10.6245 17.7246 7.556C17.7246 4.48751 15.2062 2 12.0996 2C8.99301 2 6.47461 4.48751 6.47461 7.556C6.47461 10.6245 8.99301 13.112 12.0996 13.112Z" fill="#200E32"/>
<path d="M21.0898 18.6755C21.0949 18.5964 21.0949 18.5171 21.0898 18.438C21.0676 18.1458 20.9847 17.8604 20.8457 17.5978C20.2989 16.5294 18.7659 16.0453 17.4867 15.7714C16.5741 15.5814 15.6468 15.4592 14.7135 15.4061L13.7371 15.333H13.2977H12.7509H11.4424H10.8956H10.4562L9.47971 15.4061C8.54647 15.4592 7.61919 15.5814 6.70656 15.7714C5.42739 16.0088 3.89435 16.502 3.34753 17.5978C3.20859 17.8604 3.12568 18.1458 3.10342 18.438C3.09834 18.5171 3.09834 18.5964 3.10342 18.6755C3.09873 18.7546 3.09873 18.8338 3.10342 18.9129C3.12997 19.2026 3.21618 19.4848 3.3573 19.744C3.90411 20.8125 5.43716 21.2965 6.71632 21.5705C7.63066 21.7515 8.55723 21.8736 9.48948 21.9357L10.4659 21.9997H10.7003H10.9053H13.3074H13.5125H13.7469L14.7233 21.9357C15.6556 21.8736 16.5821 21.7515 17.4965 21.5705C18.7756 21.3239 20.3087 20.8399 20.8555 19.744C20.99 19.4766 21.0727 19.189 21.0996 18.8947C21.1008 18.8215 21.0976 18.7483 21.0898 18.6755Z" fill="#200E32"/>
</svg>
