<svg width="31" height="30" viewBox="0 0 31 30" fill="none" xmlns="http://www.w3.org/2000/svg">
<g clip-path="url(#clip0_503_613)">
<path d="M28.8236 0.230469H1.7774C1.0851 0.230469 0.53125 0.784315 0.53125 1.47662V11.9074C0.53125 12.5997 1.0851 13.1535 1.7774 13.1535H28.8697C29.562 13.1535 30.1159 12.5997 30.1159 11.9074V1.47662C30.0697 0.784315 29.5159 0.230469 28.8236 0.230469Z" fill="#DBDFE0"/>
<path opacity="0.3" d="M28.8236 11.9542H1.7774C1.0851 11.9542 0.53125 11.4003 0.53125 10.708V11.908C0.53125 12.6003 1.0851 13.1542 1.7774 13.1542H28.8697C29.562 13.1542 30.1159 12.6003 30.1159 11.908V10.708C30.0697 11.4003 29.5159 11.9542 28.8236 11.9542Z" fill="#788D9A"/>
<path d="M2.83984 4.56934H27.7629V8.81549H2.83984V4.56934Z" fill="#788D9A"/>
<path d="M3.7168 6.0459H26.886V7.33821H3.7168V6.0459Z" fill="#445C6C"/>
<path d="M4.4082 6.55371V28.4306C4.4082 29.1691 5.0082 29.7691 5.74666 29.7691H24.8082C25.5467 29.7691 26.1467 29.1691 26.1467 28.4306V6.55371H4.4082Z" fill="#41B3E2"/>
<g opacity="0.5">
<path d="M17.4236 12.5542C17.4236 12.6004 17.4236 12.6004 17.4236 12.5542C17.5159 12.6004 17.5159 12.6465 17.5159 12.6927V12.7388C17.562 12.7388 17.562 12.7388 17.562 12.6927C17.6082 12.6927 17.6082 12.7388 17.6082 12.7388C17.6082 12.785 17.562 12.785 17.562 12.8311H17.3774V12.8773C17.3774 12.9696 17.3313 12.9696 17.239 12.9696C17.1928 12.9696 17.1928 12.9235 17.1467 12.9235C17.1467 12.9235 17.1005 12.9235 17.1005 12.8773C17.1005 12.9696 17.0544 12.9696 17.0082 13.0158C16.962 13.0619 16.9159 13.0619 16.8697 13.1081C16.8236 13.1081 16.8236 13.1542 16.7774 13.1542C16.7313 13.1542 16.6851 13.2004 16.639 13.2465C16.5928 13.2927 16.5467 13.2927 16.5005 13.3388C16.4544 13.2927 16.4082 13.2927 16.4082 13.2465C16.4082 13.2465 16.362 13.2465 16.362 13.2927C16.362 13.3388 16.4082 13.385 16.4082 13.4311L16.4544 13.4773C16.5005 13.4773 16.5467 13.5235 16.5467 13.5235C16.5928 13.5696 16.639 13.5696 16.639 13.6158C16.639 13.6158 16.6851 13.6158 16.6851 13.6619V13.8004L16.7313 13.8465V13.9388C16.7774 13.9388 16.7774 13.9388 16.8236 13.985C16.8697 13.985 16.9159 13.9388 16.962 13.8927H17.1005C17.1928 13.8927 17.2851 13.9388 17.3313 14.0311C17.3313 14.0773 17.3774 14.1235 17.3774 14.1696C17.3774 14.2158 17.3774 14.2158 17.3313 14.2158H17.1005C17.1005 14.2619 17.1005 14.2619 17.1467 14.3081H17.1928C17.239 14.2619 17.2851 14.2619 17.2851 14.2619C17.3774 14.2158 17.4697 14.2158 17.562 14.1696V14.0773C17.5159 14.0311 17.4697 13.985 17.4697 13.9388C17.4236 13.8927 17.4236 13.8927 17.4236 13.8465C17.4236 13.7542 17.4697 13.7081 17.562 13.6619H17.6544C17.7467 13.5696 17.7467 13.5696 17.839 13.6158C17.9313 13.5696 18.0697 13.5696 18.2082 13.5696C18.2082 13.5696 18.2544 13.5696 18.2544 13.6158L18.3928 13.7542C18.439 13.7542 18.439 13.8004 18.439 13.8465C18.439 13.8927 18.4851 13.8927 18.4851 13.9388L18.5313 13.985C18.5774 14.0311 18.5774 14.0311 18.5774 14.0773C18.6236 14.1235 18.7159 14.1235 18.762 14.1696C18.8082 14.1696 18.8082 14.2158 18.8544 14.2158C18.9005 14.2619 18.9467 14.3081 18.9928 14.3081C19.1313 14.3542 19.2697 14.4004 19.3621 14.4927C19.4082 14.4927 19.4544 14.5388 19.4544 14.5388V14.4927C19.4544 14.4465 19.4082 14.4465 19.4082 14.4004V14.3542H19.4544L19.5928 14.4927H19.6851C19.7313 14.5388 19.7774 14.6311 19.8236 14.6773C19.8697 14.7235 19.8697 14.7696 19.9159 14.8158L19.962 14.8619C20.0082 14.8619 20.0082 14.9081 20.0544 14.9081C20.1005 14.9081 20.1005 14.9542 20.1005 15.0004V15.1388C20.1005 15.185 20.1467 15.2311 20.1928 15.2773C20.239 15.2773 20.239 15.3235 20.239 15.3235C20.2851 15.3696 20.2851 15.3696 20.239 15.4619L20.3313 15.5542C20.3774 15.6004 20.3313 15.6004 20.2851 15.6465H20.239V15.7388C20.239 15.7388 20.2851 15.785 20.3313 15.785C20.3313 15.8311 20.2851 15.8773 20.2851 15.9235C20.239 15.9696 20.239 16.0158 20.1928 16.0619C20.1467 16.1081 20.1467 16.1542 20.1005 16.1542C20.0544 16.1542 20.0082 16.1081 19.962 16.0619C19.9159 16.0619 19.9159 16.1081 19.962 16.1081C20.0082 16.2004 19.962 16.2465 19.9159 16.2927H19.8236V16.3388C19.8236 16.385 19.7774 16.4311 19.7774 16.4773C19.7774 16.5235 19.7313 16.6158 19.6851 16.6619L19.4082 16.9388C19.362 16.985 19.3621 16.985 19.3159 16.985H19.0851C19.1313 17.0773 19.1313 17.0773 19.0851 17.1235C19.0851 17.1235 19.0851 17.1696 19.039 17.1696C19.039 17.2158 19.039 17.2158 19.0851 17.2158H19.1774C19.2236 17.1696 19.2236 17.1696 19.2697 17.1696H19.3159C19.4082 17.1696 19.4544 17.1696 19.5467 17.1235H19.5928C19.5928 17.1235 19.639 17.1235 19.639 17.1696V17.2158C19.639 17.3081 19.5928 17.3542 19.5928 17.4465V17.4927C19.5467 17.5388 19.4544 17.5388 19.4082 17.585H19.3621C19.3621 17.5388 19.3159 17.4927 19.3159 17.4465C19.2697 17.4927 19.2236 17.5388 19.1774 17.5388V17.585L19.2236 17.6311H19.3621L19.4082 17.6773L19.6851 18.0927C19.7313 18.185 19.7313 18.2311 19.639 18.2311H19.5928V18.4158C19.5928 18.4619 19.5928 18.4619 19.639 18.5081C19.6851 18.5542 19.6851 18.6004 19.7313 18.6465V18.7388C19.7313 18.7388 19.7313 18.785 19.7774 18.785H19.8236C19.9159 18.7388 19.9621 18.6927 20.0082 18.6465C20.1005 18.5542 20.1005 18.5542 20.1928 18.6465V18.6927L20.1467 18.7388L20.0082 18.8773C20.0082 18.8773 20.0082 18.9235 19.962 18.9235C19.962 18.9696 19.9159 19.0158 19.8697 19.1081C19.8236 19.1542 19.8236 19.2004 19.8236 19.2004C19.7774 19.2465 19.7774 19.2927 19.7313 19.385C19.7313 19.4311 19.6851 19.4311 19.639 19.4311C19.639 19.4311 19.639 19.4773 19.5928 19.4773L19.639 19.4311C19.6851 19.4311 19.7774 19.4311 19.8236 19.385L19.8697 19.3388C19.9159 19.3388 19.9621 19.3388 20.0082 19.385H20.1467C20.239 19.3388 20.3313 19.3388 20.3774 19.4311C20.4236 19.4773 20.4697 19.5235 20.5159 19.5235C20.6544 19.5696 20.7467 19.6158 20.8851 19.6158C20.9313 19.6158 20.9313 19.6158 20.9774 19.6619C20.9774 19.7081 21.0236 19.7542 21.0236 19.8004V19.8465C20.9774 19.8927 20.9313 19.8927 20.839 19.8927C20.839 19.8927 20.839 19.9388 20.7928 19.9388C20.7928 19.985 20.7467 20.0311 20.6544 20.0311H20.5159C20.4697 20.0311 20.4236 19.985 20.3774 19.985H20.3313L20.3774 20.0311C20.4236 20.0311 20.4697 20.0311 20.4697 20.0773C20.5159 20.0773 20.5159 20.1235 20.5159 20.1696H20.562C20.6082 20.1696 20.6544 20.1696 20.7005 20.1235C20.7005 20.1235 20.7467 20.0773 20.7928 20.1235C20.839 20.1235 20.839 20.1235 20.8851 20.1696C20.8851 20.2158 20.8851 20.2158 20.839 20.2619C20.7928 20.3081 20.7467 20.3542 20.7005 20.3542C20.6544 20.3542 20.6544 20.3542 20.6544 20.4004L20.7467 20.4927V20.5388C20.7467 20.5388 20.7005 20.585 20.6544 20.585C20.6544 20.6773 20.6082 20.7235 20.5159 20.8158C20.5159 20.8158 20.4697 20.8619 20.4697 20.9081C20.5159 20.9081 20.562 20.9081 20.562 20.8619C20.562 20.8158 20.6082 20.7696 20.7005 20.7696C20.7928 20.7696 20.839 20.7235 20.9313 20.7235C20.9774 20.7235 21.0236 20.7235 21.0236 20.7696C21.0697 20.9081 21.1159 21.0927 21.1159 21.2311V21.2773H21.1621C21.2544 21.2311 21.3928 21.2311 21.4851 21.3235C21.5313 21.3696 21.6236 21.4158 21.6697 21.4619C21.7159 21.5081 21.7159 21.6004 21.762 21.6465C21.8082 21.7388 21.8544 21.785 21.9005 21.8311C21.9467 21.8773 21.9467 21.8773 21.9467 21.9235C21.9467 21.9696 21.9467 22.0619 21.9928 22.1081C21.9928 22.1542 22.039 22.2004 22.039 22.2004C22.039 22.2465 22.039 22.2465 21.9928 22.2465H21.9467C21.9467 22.2927 21.9467 22.3388 21.9928 22.3388C22.1313 22.3388 22.1313 22.3388 22.1313 22.4311V22.4773C22.1774 22.5235 22.2236 22.4773 22.2236 22.4773C22.2697 22.4773 22.2697 22.4773 22.3159 22.5235C22.4082 22.6158 22.5005 22.7081 22.639 22.8004L22.6851 22.8465C22.639 22.9388 22.5928 22.985 22.5005 23.0773C22.4544 23.0773 22.4082 22.985 22.3621 22.985C22.3159 23.0773 22.3621 23.1235 22.3159 23.2158H22.2697V23.4927C22.2697 23.585 22.2236 23.6311 22.1774 23.7235C22.0851 23.8158 21.9467 23.8619 21.8544 23.8619C21.7159 23.8619 21.7159 23.8619 21.5774 23.7696L21.4851 23.6773C21.439 23.6773 21.439 23.7235 21.439 23.7235V23.7696C21.439 23.8158 21.3928 23.8158 21.3467 23.8158H21.2082C21.1621 23.8158 21.162 23.8619 21.1159 23.8619C21.1159 23.9081 21.1621 23.9542 21.1621 24.0004V24.0927C21.0697 23.9542 21.0697 24.0465 21.0697 24.0927C21.0697 24.1388 21.0697 24.1388 21.0236 24.1388H20.9313C20.8851 24.2311 20.8851 24.2773 20.8851 24.3696V24.4619H21.0236C21.0697 24.4619 21.0697 24.4619 21.0697 24.5081C21.0697 24.6004 21.0697 24.6927 21.0236 24.785C20.9774 24.8311 20.9774 24.8773 20.9313 24.9696C20.9313 25.0158 20.8851 25.0619 20.839 25.1081C20.7005 25.2004 20.7467 25.2004 20.6082 25.2004H20.5159C20.4697 25.2004 20.4697 25.2004 20.4236 25.1542C20.3313 25.2004 20.239 25.2465 20.1928 25.2927C20.1928 25.3388 20.239 25.3388 20.2851 25.385C20.3313 25.385 20.3774 25.4311 20.4236 25.4311H20.4697C20.5159 25.4311 20.5159 25.4773 20.4697 25.5235C20.4236 25.5235 20.4236 25.5696 20.3774 25.5696C20.3313 25.5696 20.3313 25.6158 20.3313 25.6619L20.3774 25.7081C20.4236 25.7542 20.4236 25.8004 20.3774 25.8465V26.1235H20.6082C20.6544 26.1235 20.6544 26.1696 20.6544 26.2158H20.7005C20.7467 26.2158 20.7467 26.2158 20.7467 26.2619C20.7467 26.4004 20.7005 26.5388 20.6544 26.6773C20.6544 26.6773 20.6544 26.7235 20.6082 26.7235C20.5159 26.8158 20.562 26.8158 20.562 26.9542C20.562 27.0004 20.562 27.0465 20.5159 27.1388C20.4697 27.1388 20.4236 27.1388 20.3774 27.185C20.3313 27.185 20.2851 27.2311 20.2851 27.2773C20.2851 27.3235 20.2851 27.3696 20.239 27.3696C20.1928 27.3696 20.1928 27.4158 20.1467 27.4619C20.1467 27.5081 20.1467 27.5542 20.1928 27.6004C20.239 27.6927 20.239 27.785 20.1928 27.8311C20.1928 27.8773 20.1928 27.9235 20.1467 27.9235C20.1467 27.9696 20.1005 28.0158 20.0544 28.0619C20.0082 28.1081 19.962 28.1081 19.9159 28.1081C19.8697 28.1081 19.8697 28.1081 19.8236 28.0619C19.7774 28.0619 19.7774 28.1081 19.7774 28.1542V28.5235C19.7774 28.5696 19.7313 28.6158 19.7313 28.6619L19.8236 28.7542C19.8697 28.8004 19.8697 28.8004 19.8697 28.8927C19.8697 28.9388 19.8236 28.9388 19.8236 28.985H19.8697C19.9159 28.985 19.9159 29.0311 19.9159 29.0311V29.1696C19.9159 29.2619 19.8697 29.4004 19.8697 29.4927C19.8697 29.5388 19.8697 29.585 19.8236 29.6311C19.7774 29.7234 19.7313 29.7696 19.6851 29.8619H18.5313C18.5313 29.8158 18.5313 29.8158 18.4851 29.8158C18.439 29.8158 18.3928 29.8619 18.3467 29.8619H18.0236V29.7696C18.0697 29.7235 18.0697 29.6773 18.0236 29.6311C17.9774 29.585 17.9774 29.4927 17.9313 29.4465C17.839 29.3542 17.7928 29.2619 17.7005 29.1235C17.6544 29.0773 17.6544 29.0311 17.562 29.0311L17.5159 28.985C17.5159 28.9388 17.562 28.9388 17.562 28.8927C17.6544 28.8004 17.6082 28.7081 17.5159 28.6619C17.5159 28.6619 17.4697 28.6619 17.4697 28.6158C17.4236 28.6158 17.4236 28.5696 17.4697 28.5235H17.5159C17.4697 28.4773 17.4697 28.4311 17.5159 28.385L17.4697 28.3388H17.4236C17.4236 28.4311 17.4236 28.4311 17.3313 28.4311C17.2851 28.385 17.239 28.3388 17.239 28.2465V28.2004C17.1928 28.2004 17.1928 28.2465 17.1928 28.2927C17.1467 28.3388 17.1467 28.3388 17.1005 28.2927L17.0544 28.2465H17.0082C16.962 28.2927 16.9159 28.2927 16.8697 28.2927C16.8236 28.2927 16.8236 28.2927 16.7774 28.2465V28.1542H16.639C16.5467 28.1542 16.5467 28.1542 16.5467 28.1081C16.5467 28.0619 16.5467 28.0158 16.5005 27.9696C16.4544 27.9235 16.4082 27.9696 16.362 27.9696C16.3159 27.9696 16.3159 27.9696 16.3159 27.9235C16.3159 27.8773 16.2697 27.8311 16.2697 27.8311H16.2236C16.1313 27.8311 16.0851 27.7388 16.039 27.6927C16.039 27.6927 15.9928 27.6465 15.9928 27.6004C15.9467 27.6004 15.9005 27.5542 15.8544 27.5081V27.4619H15.9467L16.039 27.5542C16.0851 27.5542 16.1774 27.5542 16.2236 27.5081C16.3159 27.5081 16.4544 27.4619 16.5467 27.4619H16.8697C16.9159 27.4619 16.962 27.5081 17.0082 27.5542H17.0544C17.1005 27.5081 17.1467 27.5542 17.1467 27.6004V27.6465C17.1467 27.6927 17.1928 27.7388 17.239 27.7388C17.3313 27.785 17.4236 27.8773 17.5159 27.9235C17.562 27.9696 17.6544 28.0158 17.6544 28.1081C17.6544 28.1542 17.7005 28.1542 17.7467 28.1542V28.1081C17.7467 28.0619 17.7005 28.0619 17.7005 28.0619L17.6082 27.9696C17.562 27.9235 17.562 27.8773 17.6082 27.8773C17.6544 27.8311 17.7005 27.8311 17.7928 27.8311C17.839 27.7388 17.7928 27.6927 17.7467 27.6465C17.6544 27.5542 17.562 27.5081 17.4697 27.4158H17.4236L17.3774 27.4619H17.3313C17.3313 27.4619 17.2851 27.4619 17.2851 27.4158C17.2851 27.3235 17.2851 27.2311 17.239 27.0927C17.239 27.0465 17.239 27.0465 17.2851 27.0465H17.3313C17.3313 27.0004 17.3774 26.9542 17.3774 26.9542C17.2851 26.9081 17.2851 26.9081 17.3313 26.8619V26.7696C17.2851 26.6773 17.3313 26.585 17.2851 26.4927C17.2851 26.4465 17.239 26.4004 17.1928 26.3542C17.0544 26.2619 16.962 26.1235 16.8236 26.0311L16.639 25.8465L16.5928 25.8004C16.5467 25.8004 16.5928 25.8465 16.5928 25.8465C16.639 25.8465 16.639 25.8927 16.639 25.9388C16.639 25.985 16.639 25.985 16.5928 25.985H16.5467L16.5005 25.9388C16.5005 25.9388 16.4544 25.9388 16.4544 25.985V26.0311C16.5005 26.0773 16.5005 26.1235 16.4082 26.1696L16.3159 26.2619C16.3159 26.3081 16.3159 26.3081 16.362 26.3081H16.4544V26.4004C16.4544 26.4465 16.4544 26.4465 16.4082 26.4465H16.3159C16.1313 26.4465 15.9467 26.4927 15.8082 26.5388C15.762 26.5388 15.7159 26.585 15.6697 26.585C15.6236 26.585 15.6236 26.585 15.6236 26.5388V26.4927C15.6236 26.4465 15.6236 26.4004 15.5774 26.4004H15.439C15.439 26.4004 15.3928 26.4004 15.3928 26.4465C15.3467 26.4927 15.3005 26.4927 15.2544 26.4465C15.2082 26.4465 15.2082 26.4465 15.2082 26.4004V26.3542H15.1621L15.0236 26.4927C15.0236 26.4927 14.9774 26.5388 15.0236 26.585C15.0697 26.6311 15.0236 26.6773 15.0697 26.7696L15.1621 26.8619C15.2082 26.8619 15.2082 26.9081 15.2082 26.9542C15.2082 27.0004 15.2544 27.0465 15.3005 27.0927C15.3467 27.1388 15.3467 27.1388 15.3005 27.185C15.3005 27.185 15.2544 27.185 15.2082 27.1388C15.162 27.0927 15.1621 27.0927 15.1621 27.0465C15.1621 27.0465 15.162 27.0004 15.1159 27.0004L15.0236 26.9081C14.9774 26.8619 14.9774 26.8158 14.9774 26.8158H14.8851C14.8851 26.7696 14.839 26.7235 14.839 26.7235C14.839 26.6773 14.7928 26.6311 14.7928 26.6311L14.7467 26.585C14.7928 26.5388 14.7928 26.4927 14.7928 26.4465C14.7928 26.4004 14.7467 26.4004 14.7005 26.4465C14.8851 26.3081 14.839 26.3081 14.7467 26.3081C14.6544 26.3081 14.562 26.3081 14.5159 26.2619L14.4697 26.2158H14.3313C14.1928 26.2158 14.1467 26.1235 14.1005 25.985V25.8465L13.962 25.7081C13.962 25.6619 13.962 25.6619 14.0082 25.6158L13.962 25.5696V25.5235C13.8697 25.4773 13.8697 25.4773 13.9159 25.385H13.8697C13.7774 25.385 13.7313 25.3388 13.7313 25.2465C13.7313 25.2465 13.7774 25.2004 13.7774 25.1542H13.9159C13.962 25.1081 13.962 25.1081 14.0544 25.1081C14.0544 25.1081 14.1005 25.1081 14.1005 25.1542L14.1467 25.2004C14.1928 25.2927 14.239 25.3388 14.2851 25.385C14.2851 25.4311 14.3313 25.4311 14.3313 25.4773C14.3313 25.5696 14.3774 25.6158 14.3774 25.7081C14.4236 25.7081 14.4697 25.7542 14.5159 25.7542C14.562 25.7542 14.562 25.8004 14.562 25.8465V25.8927C14.6544 26.0311 14.839 26.0773 14.9774 26.0773C15.0236 26.0311 15.1159 26.0311 15.2082 26.0311C15.2544 26.0773 15.3005 26.1235 15.3005 26.1696C15.3467 26.1696 15.439 26.2158 15.4851 26.1696H15.5313C15.5774 26.2158 15.5774 26.2158 15.6236 26.1696H16.3159C16.2697 26.1235 16.2697 26.1235 16.2236 26.1235H16.0851C15.9928 26.1235 15.9005 26.0773 15.8082 26.0311C15.6236 25.8927 15.4851 25.8004 15.3005 25.6619C15.2082 25.6158 15.162 25.5235 15.1159 25.4311V25.385C15.1159 25.3388 15.1621 25.3388 15.1621 25.2927C15.1159 25.2465 15.0697 25.2004 14.9774 25.1542H14.9313C14.8851 25.1542 14.839 25.1081 14.839 25.0619C14.7928 25.0158 14.7928 24.9696 14.7467 24.9696L14.7005 24.9235C14.6544 24.9696 14.6082 25.0158 14.5159 25.0619C14.4236 25.1081 14.3313 25.1542 14.1928 25.1081C14.1467 25.1081 14.1467 25.1081 14.1467 25.0619C14.1005 24.9696 14.0544 24.9235 14.0544 24.8311C14.0544 24.785 14.0544 24.785 14.1005 24.7388C14.1467 24.7388 14.1928 24.6927 14.239 24.7388H14.4697V24.6927C14.5159 24.6004 14.5159 24.6004 14.6544 24.6004H14.7005C14.7467 24.5542 14.7467 24.5081 14.7005 24.4619C14.6544 24.5081 14.6082 24.4619 14.6082 24.4158C14.6082 24.4158 14.6082 24.3696 14.562 24.3696C14.562 24.3235 14.562 24.3235 14.6082 24.3235C14.6544 24.3235 14.7467 24.3235 14.7928 24.3696H14.839C14.7928 24.2773 14.7467 24.2311 14.6544 24.185V24.0927C14.6082 24.0927 14.562 24.1388 14.5159 24.185V24.2311C14.562 24.3235 14.562 24.4158 14.5159 24.5081C14.5159 24.5542 14.4697 24.5542 14.4697 24.5542C14.4236 24.5542 14.4236 24.5542 14.3774 24.5081V24.4619C14.3774 24.4158 14.3774 24.3696 14.3313 24.3235C14.2851 24.2773 14.239 24.2773 14.239 24.2311C14.1928 24.2773 14.1467 24.3235 14.1005 24.3235C14.0544 24.3235 14.0082 24.3696 13.962 24.4158C13.8236 24.4619 13.8236 24.4619 13.7774 24.4619C13.7313 24.4619 13.7313 24.4619 13.6851 24.4158L13.639 24.4619H13.5005C13.4544 24.4619 13.4082 24.4619 13.4082 24.3696C13.362 24.3235 13.3159 24.2773 13.2236 24.2311C13.1774 24.2311 13.1774 24.185 13.1313 24.185C13.0851 24.1388 13.039 24.1388 13.039 24.0927C12.9928 24.0465 12.9467 24.0004 12.9467 23.9542L12.9005 23.9081C12.9005 23.8158 12.9005 23.7696 12.8544 23.6773C12.8544 23.6311 12.8082 23.585 12.8082 23.5388C12.8082 23.4927 12.8082 23.4465 12.762 23.4004V23.3542C12.7159 23.3542 12.7159 23.4004 12.6697 23.4004C12.5774 23.4004 12.4851 23.3542 12.439 23.2158C12.439 23.1235 12.5313 23.0773 12.5774 23.0773C12.6236 23.0773 12.6236 23.1235 12.6697 23.1696L12.7159 23.2158H12.762C12.762 23.1235 12.6697 22.985 12.5774 22.985L12.5313 23.0311C12.439 23.0773 12.3928 23.1696 12.3005 23.2158C12.2544 23.2619 12.2082 23.2619 12.162 23.2619H11.839C11.7928 23.1696 11.7467 23.1235 11.7005 23.0311C11.6082 22.985 11.562 22.8927 11.562 22.8004C11.6082 22.7542 11.6544 22.8004 11.7005 22.7542C11.7467 22.7081 11.7467 22.6619 11.7928 22.6158C11.839 22.5696 11.8851 22.5696 11.8851 22.5235L11.9313 22.4773C11.9313 22.4311 11.9774 22.4311 11.9774 22.385C11.9313 22.385 11.8851 22.3388 11.839 22.3388C11.7928 22.2927 11.7467 22.2927 11.7005 22.385C11.7005 22.385 11.6544 22.4311 11.6082 22.4311C11.562 22.4311 11.5159 22.4773 11.5159 22.5235L11.4697 22.5696L11.4236 22.6158C11.2851 22.7081 11.3313 22.7081 11.1928 22.7081C11.1467 22.7081 11.1005 22.7081 11.0544 22.7542C11.0082 22.7542 10.962 22.8004 10.9159 22.7542H10.8236C10.8236 22.8004 10.7774 22.8465 10.7313 22.8465C10.7313 22.8927 10.7313 22.8927 10.7774 22.9388L10.6851 23.0311V23.1235C10.6851 23.1696 10.639 23.1696 10.639 23.1696C10.5928 23.1696 10.5467 23.1235 10.5467 23.0773C10.5467 23.0311 10.5467 23.0311 10.5928 22.985L10.5467 22.9388C10.5005 22.9388 10.4544 22.9388 10.4082 22.8927V22.9388C10.4082 22.985 10.362 23.0311 10.362 23.0773C10.362 23.1235 10.3621 23.1235 10.3159 23.1696V23.2619C10.3621 23.3081 10.3621 23.3081 10.3159 23.3542C10.3159 23.4004 10.3159 23.4927 10.2697 23.5388V23.585C10.2697 23.6311 10.2236 23.6773 10.2236 23.7235C9.94666 23.8619 9.99282 23.9542 9.99282 24.0004V24.0927C9.99282 24.1388 9.99282 24.1388 9.94666 24.185C9.94666 24.2311 9.90051 24.2773 9.94666 24.3235C9.99282 24.3696 9.94666 24.4158 9.94666 24.4158C9.94666 24.4619 9.90051 24.5081 9.94666 24.5542C9.94666 24.6465 9.99282 24.6927 9.94666 24.785V24.8311C9.94666 24.8773 9.99282 24.9235 9.99282 24.9696C9.99282 25.0158 9.90051 25.0158 9.90051 25.0619H9.85436L9.8082 25.0158C9.76205 24.9235 9.7159 24.8773 9.66974 24.785C9.62359 24.7388 9.62359 24.6927 9.62359 24.6004L9.66974 24.5542C9.7159 24.5542 9.76205 24.6004 9.76205 24.6004V24.3235C9.76205 24.3235 9.7159 24.3696 9.66974 24.3235C9.62359 24.2773 9.62359 24.2311 9.62359 24.2311C9.66974 24.185 9.66974 24.1388 9.76205 24.0927V23.7696C9.76205 23.6311 9.8082 23.4927 9.8082 23.3081C9.8082 23.1696 9.85436 23.0311 9.90051 22.8927V22.8465C9.90051 22.8004 9.94666 22.8004 9.99282 22.8004C10.039 22.7542 10.039 22.7081 10.0851 22.6619C10.1774 22.5235 10.2697 22.4311 10.4544 22.3388C10.5005 22.3388 10.5005 22.2927 10.5005 22.2927C10.5467 22.2465 10.5928 22.2465 10.639 22.2004C10.639 22.2004 10.6851 22.2004 10.6851 22.1542H10.5467V22.1081C10.5467 22.0619 10.5928 22.0619 10.639 22.0619C10.6851 22.0619 10.6851 22.0619 10.6851 22.1081V22.1542H10.7313C10.8236 22.1081 10.8697 22.0619 10.9159 22.0158C10.9159 21.9696 10.962 21.9696 11.0082 21.9235C11.0544 21.9235 11.0544 21.9235 11.0544 21.9696C11.0544 22.2004 11.0544 22.1081 10.9159 22.2927L10.8236 22.385V22.4311H10.8697C10.9159 22.4311 10.962 22.385 11.0544 22.385C11.1467 22.385 11.239 22.2927 11.2851 22.2004H11.4236C11.5159 22.2004 11.6082 22.2004 11.6544 22.2465H11.7928C11.8851 22.2004 11.9313 22.2004 12.0236 22.1542H12.0697L11.9313 22.0158C11.9313 21.9696 11.9774 21.9235 11.9774 21.8773C11.9774 21.8311 12.0236 21.8311 12.0236 21.8311H12.0697C12.1159 21.8773 12.2082 21.8311 12.2544 21.8311C12.3005 21.785 12.3467 21.785 12.3928 21.785C12.439 21.7388 12.439 21.6927 12.4851 21.6465C12.5313 21.6004 12.5774 21.6004 12.6236 21.6004L12.5774 21.5542V21.2773C12.5774 21.2311 12.5313 21.2311 12.4851 21.2311C12.439 21.185 12.3928 21.185 12.3467 21.1388C12.3005 21.0465 12.2082 20.9542 12.1159 20.8619L12.0697 20.8158C12.0697 20.8158 12.0236 20.8158 12.0236 20.7696C12.0236 20.7235 11.9774 20.6773 11.9313 20.6773C11.9313 20.6773 11.9313 20.6311 11.8851 20.585H11.7005C11.6082 20.5388 11.562 20.5388 11.4697 20.5388C11.4236 20.6311 11.3313 20.6773 11.2851 20.7235C11.4236 20.7696 11.4236 20.7696 11.3774 20.7696H11.2851C11.239 20.7235 11.239 20.6311 11.239 20.585C11.3313 20.5388 11.4236 20.5388 11.5159 20.5388C11.5159 20.4927 11.5159 20.4465 11.4697 20.4465C11.4236 20.4004 11.4236 20.4004 11.4697 20.3081C11.5159 20.2619 11.5159 20.2158 11.562 20.2158C11.7928 20.1235 11.9774 20.0311 12.2082 19.985C12.3467 19.9388 12.4851 19.8927 12.6697 19.8927V19.8465C12.6697 19.7542 12.6697 19.6619 12.762 19.6158L12.8082 19.5696C12.8544 19.5235 12.8544 19.5235 12.9005 19.5235C12.9467 19.4773 12.9467 19.4311 12.9928 19.385C13.039 19.3388 13.0851 19.3388 13.1313 19.2927V19.1081C13.1774 19.0158 13.1313 18.9696 13.1313 18.8773V18.7388C13.1313 18.6465 13.1313 18.5542 13.1774 18.4619V18.4158H13.1313C13.1313 18.4619 13.0851 18.4619 13.0851 18.5081C13.0851 18.5542 13.039 18.6004 12.9928 18.6465C12.9467 18.6465 12.9467 18.6927 12.9467 18.6927C12.8082 18.6927 12.762 18.6004 12.6697 18.5081H12.5774C12.5313 18.4158 12.5313 18.3696 12.439 18.3235C12.439 18.2773 12.3928 18.2311 12.3467 18.2311C12.3467 18.2311 12.3005 18.185 12.3005 18.1388C12.3005 18.0927 12.2544 18.0465 12.2544 18.0004C12.162 17.9542 12.162 17.9542 12.162 17.9081C12.1159 17.7696 12.0697 17.6311 11.9774 17.5388C11.9313 17.4927 11.9313 17.4465 11.9313 17.4004V17.3542C11.8851 17.3081 11.8851 17.2619 11.8851 17.2158C11.839 17.2158 11.7928 17.1696 11.7928 17.2158L11.7467 17.2619C11.7467 17.4004 11.7928 17.4927 11.7928 17.6311C11.7928 17.6773 11.839 17.7235 11.839 17.7696C11.839 17.8158 11.839 17.8158 11.8851 17.8619C11.8851 17.9081 11.8851 17.9081 11.839 17.9081C11.7928 17.9081 11.7005 17.9081 11.6544 17.8619C11.562 17.8158 11.4697 17.7696 11.3774 17.7696C11.2851 17.7235 11.1928 17.6773 11.1005 17.585C11.0082 17.4927 10.9159 17.4004 10.8236 17.2619C10.7774 17.1696 10.7313 17.1235 10.639 17.0773C10.5467 17.0311 10.5005 16.9388 10.4544 16.8927C10.4544 16.8927 10.4082 16.8927 10.4082 16.8465C10.3159 16.8004 10.2697 16.7542 10.1774 16.7542L10.1313 16.8004C10.0851 16.8465 10.039 16.8465 9.99282 16.8465C9.90051 16.8465 9.85436 16.8465 9.8082 16.8927C9.76205 16.9388 9.76205 16.9388 9.7159 16.9388H9.34666C9.30051 16.9388 9.25436 16.9388 9.25436 16.8927C9.25436 16.8927 9.2082 16.8465 9.16205 16.8465C9.1159 16.8004 9.06974 16.7542 9.06974 16.6619C9.06974 16.6619 9.06974 16.6158 9.02359 16.6158C8.97743 16.5235 8.88513 16.4773 8.83897 16.385C8.79282 16.385 8.74667 16.4311 8.65436 16.4311C8.6082 16.4773 8.5159 16.4773 8.46974 16.4773C8.42359 16.4773 8.42359 16.4773 8.37743 16.4311L8.28513 16.3388C8.28513 16.2927 8.23897 16.2465 8.23897 16.2465C8.14667 16.2465 8.05436 16.2465 7.96205 16.2004C7.9159 16.2004 7.9159 16.2004 7.9159 16.1542C7.9159 16.1081 7.86974 16.0619 7.82359 16.0158C7.73128 15.9696 7.63897 15.8773 7.59282 15.8311C7.50051 15.785 7.45436 15.6927 7.4082 15.6004C7.4082 15.5542 7.4082 15.5542 7.36205 15.5081C7.36205 15.4619 7.3159 15.4158 7.36205 15.3696C7.4082 15.2773 7.36205 15.185 7.3159 15.0927C7.3159 15.0465 7.3159 15.0465 7.26974 15.0004V14.9081C7.3159 14.8619 7.3159 14.8619 7.3159 14.8158C7.36205 14.7696 7.45436 14.7696 7.50051 14.7696C7.54666 14.7696 7.54666 14.7696 7.59282 14.8158C7.73128 14.7696 7.86974 14.6773 8.0082 14.585C8.05436 14.5388 8.10051 14.5388 8.19282 14.4927C8.28513 14.4927 8.33128 14.4465 8.37743 14.4465H8.5159C8.56205 14.4465 8.6082 14.4465 8.65436 14.4004C8.74667 14.3542 8.88513 14.3081 8.97743 14.2619C9.06974 14.2158 9.16205 14.2158 9.30051 14.2158C9.34666 14.2158 9.43897 14.2619 9.48513 14.2619C9.53128 14.2619 9.57743 14.3081 9.57743 14.3081C9.62359 14.3542 9.66974 14.4004 9.76205 14.3542C9.8082 14.3542 9.8082 14.3081 9.85436 14.3081C9.90051 14.3081 9.90051 14.2619 9.94666 14.3081H9.99282C10.1313 14.2619 10.2697 14.2158 10.362 14.0773C10.4544 13.985 10.5467 13.9388 10.6851 13.8927L10.7313 13.9388C10.7774 13.9388 10.7774 13.985 10.8236 13.9388H11.0082C11.0082 13.8927 10.962 13.8465 11.0082 13.8465C11.0082 13.8465 11.0544 13.8465 11.1005 13.8004V13.6158C11.1005 13.5696 11.1005 13.5235 11.1467 13.5235C11.1467 13.5235 11.1928 13.5235 11.1928 13.4773C11.239 13.4773 11.239 13.4311 11.2851 13.385C11.2851 13.2927 11.2851 13.2004 11.239 13.1081C11.1928 13.0619 11.1928 13.0158 11.1928 12.9696C11.1928 12.9235 11.1467 12.8773 11.1928 12.8311C11.239 12.7388 11.239 12.6465 11.1928 12.5542C11.1928 12.5081 11.1928 12.5081 11.1467 12.4619C11.1005 12.3696 11.1005 12.2773 11.1467 12.2311C11.1928 12.185 11.239 12.0927 11.2851 12.0465C11.3313 12.0004 11.3313 11.9542 11.3774 11.9081C11.4236 11.8619 11.4236 11.8158 11.5159 11.8158C11.562 11.8158 11.562 11.7696 11.6082 11.7696C11.6544 11.7235 11.6544 11.6773 11.7005 11.6773C11.7467 11.6311 11.7467 11.585 11.839 11.585C11.839 11.5388 11.8851 11.5388 11.8851 11.4927H11.9313C11.9774 11.4927 12.0236 11.4927 12.1159 11.4465H12.2082L12.2544 11.4927L12.3005 11.5388H12.5313C12.5774 11.5388 12.5774 11.4927 12.6236 11.5388H12.7159C12.8082 11.4927 12.8544 11.4927 12.9467 11.5388C12.9928 11.585 13.039 11.585 13.039 11.6311C13.0851 11.6773 13.1774 11.7235 13.2236 11.7235C13.2697 11.7235 13.2697 11.7696 13.3159 11.7696C13.3621 11.8158 13.362 11.8158 13.4082 11.8158C13.4082 11.7696 13.4082 11.7696 13.4544 11.7235C13.5467 11.7235 13.5928 11.7696 13.639 11.8158V11.8619H13.5005C13.4544 12.0004 13.5467 12.0465 13.5928 12.1388C13.639 12.185 13.6851 12.185 13.7313 12.185C13.7774 12.185 13.7774 12.185 13.8236 12.1388C13.9159 12.185 13.962 12.2311 14.0544 12.2773C14.1005 12.2773 14.1005 12.3235 14.1005 12.3696C14.1005 12.4158 14.1467 12.4619 14.1928 12.4619C14.239 12.4619 14.2851 12.5081 14.3313 12.5081L14.4236 12.4158C14.4236 12.3696 14.3774 12.3235 14.3774 12.2773C14.3774 12.2311 14.3774 12.2311 14.4236 12.2311H14.5159C14.562 12.2311 14.6082 12.2311 14.6082 12.185H15.0697C15.1159 12.1388 15.162 12.185 15.2082 12.2311C15.2082 12.2773 15.2544 12.2773 15.2544 12.3235C15.2544 12.4158 15.2082 12.4619 15.2082 12.5542C15.2082 12.6465 15.162 12.6927 15.2082 12.7388C15.2082 12.785 15.2082 12.785 15.1621 12.8311C15.1621 12.8773 15.2082 12.8773 15.2082 12.8773C15.2544 12.8773 15.3005 12.8773 15.3467 12.9235C15.439 12.9235 15.4851 12.9235 15.5313 12.8773L15.5774 12.8311C15.6236 12.8311 15.6236 12.785 15.6236 12.7388C15.6236 12.6927 15.6697 12.6465 15.6697 12.6004H15.8082C15.8544 12.6465 15.8544 12.7388 15.9005 12.785L15.8544 12.8311C15.9005 12.8311 15.9467 12.785 15.9928 12.8311V12.6927L15.9467 12.6465C15.9467 12.6004 15.9467 12.6004 15.9005 12.5542V12.4619C15.9467 12.4158 15.9467 12.4158 15.9928 12.4619C16.039 12.4619 16.039 12.5081 16.0851 12.5081L16.1313 12.5542C16.1313 12.5081 16.1774 12.5081 16.1774 12.4619C16.1774 12.4158 16.2236 12.4619 16.2697 12.4619L16.3159 12.5081C16.3621 12.5081 16.3621 12.4619 16.4082 12.4619C16.4544 12.4619 16.4544 12.4619 16.5005 12.5081C16.5467 12.5542 16.5005 12.5542 16.5005 12.6004C16.5005 12.6465 16.5467 12.6465 16.5467 12.6465C16.5928 12.6465 16.5928 12.6004 16.639 12.6004V12.5081L16.5467 12.4158C16.4544 12.4158 16.362 12.4158 16.2697 12.3696C16.2236 12.2773 16.1774 12.1388 16.1313 12.0465C16.1774 12.0004 16.2236 11.9542 16.2697 11.9542H16.3159C16.3159 12.0004 16.3621 12.0004 16.4082 12.0004C16.4082 12.0004 16.4544 11.9542 16.5005 11.9542H16.5467C16.639 11.9542 16.639 11.9542 16.6851 12.0465C16.6851 12.0465 16.7313 12.0465 16.7313 12.0927C16.7774 12.1388 16.8236 12.185 16.8236 12.2311V12.3235H16.8697C16.9159 12.2773 16.9159 12.2773 16.9159 12.3235C16.962 12.3696 17.0082 12.3235 17.0544 12.3696L17.1928 12.2311C17.2851 12.2311 17.3313 12.2773 17.3774 12.3235C17.3774 12.3235 17.4236 12.3696 17.3774 12.3696C17.4697 12.6004 17.4697 12.6004 17.4236 12.5542ZM19.639 19.9388C19.639 19.9388 19.6851 19.985 19.7313 19.9388H19.639C19.639 19.9388 19.639 19.985 19.5928 19.985C19.6851 19.9388 19.6851 19.9388 19.639 19.9388ZM13.7313 14.9081H13.7774C13.962 14.9081 13.9159 14.9081 13.962 15.0465V15.185C13.962 15.2311 13.962 15.2773 13.9159 15.2773V15.3235C13.8697 15.4158 13.8236 15.4619 13.8236 15.5542C13.8236 15.6004 13.8236 15.6465 13.7774 15.6927V15.8773C13.8236 15.9235 13.8236 15.9696 13.7774 16.0158C13.7313 16.0619 13.7313 16.1081 13.7774 16.2004C13.8236 16.2465 14.0544 16.3388 14.1467 16.3388C14.1928 16.3388 14.239 16.385 14.2851 16.3388C14.2851 16.2465 14.2851 16.2465 14.239 16.2004C14.1928 16.2465 14.1928 16.2465 14.1467 16.2465C14.1005 16.2465 14.1005 16.2465 14.1005 16.2004C14.1005 16.1542 14.1005 16.1081 14.0544 16.0619C14.0544 16.0158 14.1005 15.9696 14.1467 15.9696C14.1928 15.9696 14.1928 16.0158 14.1928 16.0158C14.239 15.9696 14.239 15.9235 14.2851 15.8773C14.239 15.8311 14.1928 15.785 14.1928 15.7388C14.1928 15.6927 14.239 15.6465 14.239 15.6465C14.1928 15.6004 14.1928 15.6004 14.1928 15.5542C14.239 15.4619 14.239 15.4619 14.3313 15.5081C14.3313 15.5081 14.3313 15.4619 14.3774 15.4619C14.3774 15.4158 14.4236 15.4619 14.4236 15.4619C14.4697 15.4619 14.4697 15.4619 14.4697 15.4158C14.4697 15.4158 14.4697 15.3696 14.5159 15.3696H14.7005C14.7928 15.3696 14.7928 15.3696 14.7928 15.2773V15.2311C14.7467 15.2311 14.7467 15.2311 14.7005 15.185C14.6544 15.185 14.6082 15.2311 14.562 15.2773L14.4697 15.3696C14.4236 15.3235 14.3774 15.3235 14.3774 15.2311H14.2851V15.0927C14.3313 15.0465 14.3774 15.0004 14.4236 15.0004H14.4697C14.562 14.9542 14.6544 14.9081 14.7005 14.8619C14.6082 14.8158 14.6082 14.8619 14.6544 14.7696H14.562C14.5159 14.6773 14.4236 14.6311 14.3313 14.585C14.2851 14.585 14.2851 14.5388 14.2851 14.4927C14.2851 14.4465 14.3313 14.4004 14.3313 14.3542C14.3313 14.3081 14.3774 14.2619 14.4236 14.2619H14.4697C14.6082 14.3081 14.6082 14.3081 14.6082 14.3542V14.4927L14.6544 14.5388C14.7005 14.5388 14.7467 14.5388 14.7928 14.4927C14.7928 14.4465 14.839 14.4465 14.8851 14.4004L14.9774 14.3081C14.9774 14.2619 15.0236 14.2619 15.0236 14.2619C15.0697 14.2158 15.1159 14.2158 15.1159 14.1696L15.1621 14.1235C15.2082 14.1235 15.2544 14.0773 15.3005 14.0773C15.3467 14.0773 15.3467 14.0311 15.3467 13.985V13.8927C15.3005 13.8465 15.3005 13.8004 15.2544 13.7542C15.2082 13.7081 15.2082 13.6619 15.2544 13.5696C15.2544 13.5696 15.2544 13.5235 15.3005 13.5235C15.3005 13.4773 15.3005 13.4311 15.2544 13.4311H15.1621C15.1621 13.385 15.1159 13.385 15.1159 13.3388C15.0697 13.2465 14.9774 13.2004 14.8851 13.1542H14.839C14.7928 13.2004 14.7467 13.1542 14.7467 13.1542L14.6544 13.0619C14.562 12.9696 14.5159 12.9235 14.5159 12.785C14.5159 12.7388 14.5159 12.6927 14.4697 12.6927C14.4236 12.6927 14.4236 12.7388 14.4236 12.785V12.8773C14.4236 12.9235 14.4236 12.9235 14.3774 12.9696C14.4236 13.0158 14.4236 13.1081 14.4697 13.1542C14.5159 13.2465 14.562 13.385 14.562 13.5235V14.0773C14.562 14.1235 14.5159 14.1235 14.5159 14.1696C14.5159 14.2158 14.4697 14.2158 14.4236 14.1696L14.3774 14.1235C14.3774 14.1235 14.3313 14.1235 14.3313 14.1696H14.239C14.239 14.1696 14.1928 14.1235 14.1467 14.1235C14.1005 14.1696 14.0544 14.2619 14.0544 14.3542V14.4465C14.0544 14.5388 14.0082 14.6311 13.9159 14.6311L13.8697 14.6773C13.8697 14.7235 13.8236 14.7696 13.8236 14.8158C13.7313 14.8158 13.7313 14.8619 13.7313 14.9081ZM18.8082 15.1388H18.6236C18.5774 15.0927 18.5313 15.0465 18.439 15.0004L18.3005 14.8619C18.2082 14.7696 18.1621 14.7235 18.0236 14.7696H17.9313C17.8851 14.7696 17.839 14.7696 17.7928 14.8158C17.7467 14.8619 17.7467 14.8619 17.7005 14.8619C17.7005 14.8619 17.6544 14.8619 17.6544 14.9081C17.6082 14.9081 17.6082 14.8619 17.562 14.8619C17.5159 14.8619 17.4697 14.8158 17.4697 14.8158C17.4236 14.7696 17.3774 14.7235 17.3313 14.7235C17.239 14.7235 17.1467 14.6773 17.0544 14.6773H17.0082C17.0082 14.6311 17.0082 14.585 16.962 14.5388C16.9159 14.4927 16.8697 14.5388 16.8697 14.4927C16.8236 14.4465 16.8697 14.3542 16.8236 14.3542C16.8236 14.4465 16.8236 14.4465 16.7774 14.4927L16.7313 14.5388V14.6311C16.7774 14.7235 16.7774 14.8158 16.8236 14.8619C16.8697 14.9542 16.8697 14.9542 16.7774 15.0004L16.8236 15.0465C16.8697 15.0927 16.9159 15.1388 17.0082 15.1388H17.0544C17.1467 15.1388 17.1928 15.1388 17.239 15.185C17.2851 15.185 17.2851 15.2311 17.3313 15.2311C17.3774 15.185 17.3774 15.185 17.4236 15.2311H17.4697C17.5159 15.2311 17.5159 15.2773 17.5159 15.2773V15.3235C17.562 15.3696 17.562 15.4158 17.562 15.5081V15.6927C17.562 15.7388 17.562 15.8311 17.6544 15.8311C17.7005 15.8311 17.7005 15.785 17.7005 15.7388C17.7005 15.6927 17.7005 15.6465 17.6544 15.6004C17.6082 15.5081 17.6082 15.4158 17.562 15.3235C17.6082 15.2773 17.6082 15.2311 17.6544 15.2311C17.7005 15.185 17.7005 15.1388 17.7467 15.1388C17.7928 15.1388 17.839 15.185 17.8851 15.185C17.9313 15.185 17.9774 15.1388 18.0236 15.1388H18.1159C18.162 15.1388 18.162 15.185 18.2082 15.185C18.3467 15.2773 18.4851 15.3696 18.6236 15.5081C18.6697 15.5542 18.7159 15.5542 18.762 15.5081C18.8082 15.4619 18.8082 15.3696 18.762 15.3235C18.8544 15.185 18.8082 15.1388 18.8082 15.1388ZM15.3467 17.4927C15.2544 17.5388 15.2082 17.585 15.1159 17.5388C15.0236 17.585 14.9313 17.6311 14.839 17.7235C14.7928 17.7696 14.7928 17.7696 14.7467 17.7235C14.7005 17.6773 14.6082 17.6311 14.562 17.6773H14.5159C14.4697 17.7235 14.4236 17.8158 14.4236 17.8619V18.0465H14.562C14.6082 18.0465 14.6544 18.0465 14.6544 18.0004C14.6544 18.0004 14.7005 18.0004 14.7005 17.9542C14.7005 17.9081 14.7467 17.9081 14.7928 17.9081C14.839 17.9081 14.9313 17.9081 14.9774 17.8619H15.0697C15.1159 17.8158 15.2082 17.7696 15.2544 17.7235C15.2544 17.6773 15.3005 17.7235 15.3467 17.7235C15.3928 17.7235 15.3928 17.7235 15.3928 17.7696C15.3928 17.8158 15.3928 17.8158 15.439 17.8158C15.4851 17.8619 15.4851 17.9081 15.4851 17.9542V18.0465C15.5774 18.0465 15.6236 18.0004 15.6236 17.9081C15.6236 17.8158 15.6236 17.7235 15.5313 17.6773C15.4851 17.6311 15.439 17.585 15.439 17.5388C15.439 17.5388 15.3928 17.4927 15.3467 17.4927ZM13.3159 16.2927C13.2236 16.3388 13.1313 16.385 13.0851 16.4311C13.039 16.4311 12.9928 16.4773 12.9928 16.4773C12.9467 16.4773 12.9005 16.5235 12.9005 16.5235C12.9005 16.5696 12.8544 16.5696 12.8082 16.5696C12.762 16.5696 12.6697 16.6158 12.6236 16.6158C12.5774 16.6158 12.5313 16.6619 12.4851 16.6619L12.439 16.7081C12.3928 16.7542 12.3467 16.7542 12.3005 16.7542C12.2544 16.7542 12.2544 16.8004 12.2082 16.8465L12.0697 16.985L12.0236 17.0311C12.1159 17.0311 12.2082 16.985 12.3005 16.985H12.3467C12.439 16.8927 12.5313 16.8465 12.6236 16.7542C12.6697 16.7081 12.7159 16.7081 12.762 16.7081H12.8544C12.9005 16.7081 12.9005 16.7081 12.9467 16.6619C12.9928 16.5696 13.0851 16.5235 13.1774 16.4773C13.2236 16.4311 13.3159 16.385 13.362 16.3388C13.362 16.385 13.3621 16.385 13.3159 16.2927C13.3621 16.3388 13.3621 16.3388 13.3159 16.2927ZM13.039 17.9081C12.9928 17.9542 13.039 18.0465 13.039 18.0927C13.039 18.1388 13.1313 18.185 13.1774 18.2311C13.1774 18.185 13.1774 18.1388 13.2236 18.0927C13.2236 18.0465 13.2697 18.0465 13.2697 18.0004C13.3159 17.9081 13.4082 17.8158 13.5005 17.7696C13.5467 17.7696 13.5928 17.7235 13.5928 17.6773C13.5467 17.6773 13.5467 17.6311 13.5005 17.6311C13.4082 17.6773 13.3159 17.7696 13.2236 17.8158V17.8619C13.2236 17.9542 13.1313 17.9081 13.039 17.9081ZM18.9928 16.8927C18.9928 16.8465 18.9928 16.8004 18.9467 16.8004C18.9005 16.6619 18.9005 16.7081 18.9467 16.5696C18.9467 16.5235 18.9928 16.4311 18.9928 16.385V16.3388C18.9467 16.385 18.9005 16.385 18.8544 16.385H18.6697C18.6236 16.4311 18.6236 16.4773 18.5774 16.4773V16.5235C18.5774 16.5235 18.6236 16.5235 18.6236 16.4773C18.6697 16.4311 18.7159 16.4311 18.762 16.4773C18.762 16.4773 18.8082 16.5235 18.8544 16.5235V16.5696C18.8544 16.6158 18.8082 16.6619 18.8082 16.7081V16.7542C18.8544 16.7542 18.9005 16.7081 18.9467 16.7081C18.9005 16.8004 18.9467 16.8465 18.9928 16.8927ZM15.0236 14.6311C14.9774 14.6311 14.9774 14.6311 14.9313 14.6773L14.8851 14.7235C14.839 14.7696 14.7928 14.8158 14.7928 14.8619H14.9313C14.9313 14.8158 14.9774 14.8158 14.9774 14.7696C15.0236 14.6773 15.0697 14.6311 15.1621 14.5388C15.2082 14.4927 15.2544 14.4465 15.3467 14.4465C15.3005 14.4004 15.3467 14.4004 15.3928 14.3542H15.439C15.439 14.3542 15.439 14.3081 15.3928 14.3081C15.3467 14.3081 15.3005 14.3081 15.2544 14.3542C15.2082 14.4004 15.162 14.4465 15.0697 14.4927C15.0236 14.4927 14.9774 14.5388 14.9774 14.585C15.0236 14.585 15.0236 14.6311 15.0236 14.6311ZM15.2544 18.5542V18.6004C15.2544 18.6465 15.2544 18.6465 15.3005 18.6927C15.3005 18.7388 15.3467 18.7388 15.3467 18.7388C15.3467 18.7388 15.3928 18.7388 15.3928 18.785L15.439 18.7388H15.5313C15.4851 18.6927 15.4851 18.6927 15.4851 18.6465C15.4851 18.6004 15.439 18.6004 15.3928 18.6004C15.3467 18.5542 15.3005 18.5542 15.2544 18.5542ZM19.5467 19.985C19.5005 19.9388 19.5005 19.9388 19.4544 19.9388C19.4082 19.9388 19.3621 19.9388 19.3159 19.8927L19.2236 19.8004L19.1313 19.7081H19.0851L19.039 19.7542C19.1774 19.9388 19.3159 20.0311 19.5467 19.985ZM16.1313 12.9696L16.039 13.0619L16.1313 13.1542V13.2004C16.1313 13.2004 16.1774 13.2465 16.1774 13.2004V13.0158L16.1313 12.9696ZM21.0697 23.2619C21.0697 23.2158 21.0236 23.1696 21.0236 23.1235C21.0236 23.0773 20.9774 23.0773 20.9774 23.0773C20.9774 23.1696 21.0236 23.2158 21.0697 23.2619ZM21.2082 23.3542C21.1621 23.4004 21.1159 23.4465 21.1159 23.5388C21.1159 23.5388 21.1159 23.585 21.1621 23.585C21.2082 23.585 21.2082 23.585 21.2082 23.5388C21.2082 23.4927 21.2544 23.4465 21.2082 23.3542C21.2544 23.4004 21.2544 23.4004 21.2082 23.3542ZM19.7774 28.8004C19.7313 28.8465 19.7313 28.8927 19.6851 28.9388C19.7313 28.985 19.7313 28.9388 19.7774 28.9388H19.8697C19.8236 28.8465 19.8236 28.8465 19.7774 28.8004ZM17.239 15.3235H17.3774C17.4236 15.2773 17.4236 15.2311 17.3774 15.185L17.239 15.3235ZM20.1928 19.9388H20.0082C20.0544 19.9388 20.1467 19.985 20.1928 19.9388ZM22.1313 23.0773C22.1774 23.0773 22.1774 23.0773 22.1313 23.0773V23.0773ZM11.8851 6.55422H4.54666C4.54666 6.60038 4.50051 6.60038 4.50051 6.64653C4.50051 6.64653 4.50051 6.69268 4.45436 6.69268C4.45436 6.73884 4.45436 6.73884 4.4082 6.78499C4.4082 6.83114 4.4082 6.83114 4.45436 6.8773H4.50051C4.50051 6.92345 4.50051 6.96961 4.54666 7.01576C4.54666 7.06191 4.59282 7.10807 4.59282 7.10807C4.63897 7.15422 4.68513 7.15422 4.68513 7.06191V7.01576C4.68513 6.92345 4.73128 6.8773 4.77743 6.83114C4.82359 6.78499 4.86974 6.73884 4.96205 6.78499H5.0082C5.05436 6.78499 5.10051 6.73884 5.10051 6.73884C5.14666 6.73884 5.19282 6.73884 5.23897 6.78499C5.28513 6.83114 5.33128 6.8773 5.37743 6.8773C5.42359 6.8773 5.46974 6.92345 5.46974 6.92345C5.5159 6.96961 5.5159 7.01576 5.56205 7.06191H5.74666C5.74666 6.96961 5.79282 6.92345 5.88513 6.92345C5.93128 6.92345 5.97743 6.96961 5.97743 7.01576C5.97743 7.06191 5.97743 7.06191 6.02359 7.10807C6.06974 7.15422 6.1159 7.20038 6.2082 7.15422H6.25436C6.30051 7.20038 6.30051 7.24653 6.34667 7.29268H6.48513C6.48513 7.29268 6.53128 7.29268 6.53128 7.24653C6.53128 7.29268 6.53128 7.29268 6.57743 7.29268C6.57743 7.33884 6.62359 7.38499 6.66974 7.38499C6.7159 7.38499 6.76205 7.43114 6.8082 7.43114C6.8082 7.4773 6.8082 7.52345 6.85436 7.56961C6.85436 7.61576 6.90051 7.66191 6.90051 7.70807C6.94667 7.80038 6.99282 7.84653 7.08513 7.89268H7.13128C7.17743 7.89268 7.17743 7.89268 7.17743 7.84653C7.22359 7.80038 7.26974 7.84653 7.26974 7.84653V7.98499C7.26974 8.0773 7.3159 8.12345 7.4082 8.21576C7.45436 8.26191 7.54666 8.30807 7.59282 8.40038C7.63897 8.44653 7.68513 8.49268 7.73128 8.49268C7.82359 8.53884 7.86974 8.53884 7.96205 8.63115C8.0082 8.6773 8.0082 8.6773 8.05436 8.6773H8.23897C8.28513 8.6773 8.28513 8.6773 8.33128 8.72345C8.42359 8.76961 8.46974 8.86191 8.5159 8.95422V9.00038C8.56205 9.04653 8.56205 9.13884 8.56205 9.18499V9.23114C8.6082 9.2773 8.6082 9.32345 8.65436 9.36961C8.74667 9.36961 8.79282 9.41576 8.88513 9.46191C8.93128 9.46191 8.93128 9.46191 8.97743 9.50807C9.02359 9.50807 9.02359 9.50807 9.06974 9.55422C9.1159 9.60038 9.1159 9.60038 9.16205 9.60038H9.48513C9.53128 9.60038 9.53128 9.60038 9.57743 9.64653L9.8082 9.8773C9.90051 9.96961 9.99282 9.96961 10.0851 10.0158H10.1313C10.2236 10.0158 10.3159 9.96961 10.362 9.96961V9.8773C10.362 9.83114 10.362 9.78499 10.4082 9.73884C10.4544 9.69268 10.5005 9.64653 10.5467 9.55422C10.5928 9.50807 10.5928 9.46191 10.5928 9.41576V9.2773C10.5928 9.23114 10.5928 9.18499 10.639 9.13884C10.7313 9.09268 10.7774 9.04653 10.7774 8.95422V8.81576C10.8236 8.76961 10.8236 8.72345 10.8236 8.72345V8.63115C10.8697 8.6773 10.962 8.72345 11.0082 8.6773C11.0082 8.6773 11.0082 8.63115 11.0544 8.63115H11.1467C11.1928 8.63115 11.239 8.58499 11.239 8.58499C11.2851 8.53884 11.2851 8.49268 11.3313 8.44653C11.3774 8.40038 11.3774 8.30807 11.3774 8.26191V8.03114C11.4236 7.98499 11.4236 7.93884 11.4697 7.93884C11.5159 7.89268 11.562 7.84653 11.562 7.80038C11.562 7.75422 11.6082 7.70807 11.6082 7.66191H11.7005C11.7928 7.66191 11.7928 7.66191 11.7928 7.56961V7.43114C11.7928 7.38499 11.7928 7.33884 11.7467 7.24653C11.7928 7.15422 11.7928 7.06191 11.7928 6.96961C11.839 6.96961 11.839 6.8773 11.9313 6.92345H11.9774C11.9774 6.8773 12.0236 6.8773 11.9774 6.83114C11.8851 6.64653 11.8851 6.60038 11.8851 6.55422ZM14.9313 6.55422C14.9313 6.60038 14.9313 6.64653 14.9774 6.64653C14.9774 6.69268 14.9774 6.69268 15.0236 6.69268H15.0697C15.0697 6.64653 15.0697 6.64653 15.1159 6.60038C15.162 6.60038 15.2082 6.64653 15.2544 6.64653C15.3005 6.73884 15.3467 6.78499 15.3467 6.8773C15.3005 6.96961 15.3005 6.96961 15.2544 6.96961C15.2082 6.96961 15.2082 7.01576 15.2082 7.01576V7.06191C15.3005 7.15422 15.3467 7.20038 15.3467 7.33884V7.38499C15.3467 7.43114 15.3928 7.4773 15.439 7.4773L15.4851 7.52345C15.4851 7.56961 15.5313 7.56961 15.5313 7.56961H15.5774C15.5774 7.56961 15.6236 7.56961 15.6236 7.52345C15.7159 7.4773 15.7159 7.4773 15.6236 7.38499V7.24653C15.6236 7.20038 15.6697 7.20038 15.6697 7.15422V7.10807H15.762C15.762 7.15422 15.8082 7.15422 15.8082 7.15422H15.9005V7.20038C15.8544 7.24653 15.8544 7.29268 15.8544 7.33884C15.8544 7.38499 15.9005 7.38499 15.9467 7.38499L15.9928 7.33884C15.9928 7.43114 15.9928 7.4773 16.039 7.56961C16.0851 7.61576 16.1313 7.61576 16.1774 7.66191C16.2236 7.70807 16.2236 7.70807 16.1774 7.75422C16.1313 7.75422 16.1313 7.70807 16.0851 7.70807C16.039 7.66191 15.9467 7.66191 15.9005 7.61576C15.8544 7.61576 15.8082 7.56961 15.8082 7.56961H15.762C15.7159 7.56961 15.6697 7.56961 15.6697 7.61576V7.89268C15.6236 7.89268 15.5774 7.89268 15.5774 7.93884C15.5774 7.98499 15.6236 7.98499 15.6236 8.03114C15.5774 8.0773 15.4851 8.12345 15.5313 8.21576C15.6236 8.26191 15.6697 8.30807 15.762 8.26191H15.8082C15.8544 8.26191 15.8544 8.26191 15.8544 8.21576H15.9005C15.9467 8.16961 15.9467 8.0773 15.9467 8.03114C15.9928 7.98499 16.039 7.98499 16.039 7.93884C16.0851 7.93884 16.1313 7.98499 16.1774 7.98499C16.2236 8.03114 16.3159 8.03114 16.362 7.98499H16.4544C16.5467 7.98499 16.5928 7.98499 16.639 7.89268C16.639 7.84653 16.6851 7.84653 16.6851 7.84653C16.7313 7.84653 16.7313 7.80038 16.7774 7.75422C16.7774 7.75422 16.7774 7.70807 16.8236 7.70807C16.8697 7.66191 16.8697 7.61576 16.8697 7.56961C16.9159 7.56961 16.962 7.52345 16.962 7.4773C16.962 7.4773 16.962 7.43114 17.0082 7.43114C17.0544 7.38499 17.0544 7.38499 17.1005 7.43114C17.1467 7.4773 17.1928 7.4773 17.1928 7.43114C17.3774 7.33884 17.5159 7.24653 17.7005 7.15422L17.7467 7.10807C17.7467 7.06191 17.7005 7.01576 17.6544 7.01576C17.6082 6.96961 17.6082 6.96961 17.562 6.96961H17.4697C17.4236 6.92345 17.4236 6.8773 17.3774 6.83114C17.4236 6.78499 17.4236 6.73884 17.4697 6.73884C17.5159 6.69268 17.5159 6.69268 17.562 6.69268H17.839C17.839 6.64653 17.8851 6.60038 17.8851 6.55422H17.9313H14.9313ZM18.2544 6.55422V6.60038C18.2544 6.64653 18.2082 6.69268 18.2082 6.73884C18.1159 6.78499 18.1159 6.8773 18.0697 6.96961C18.0697 7.01576 18.0697 7.01576 18.1159 7.01576H18.2544V7.15422C18.3005 7.20038 18.3467 7.20038 18.3928 7.20038H18.4851C18.5313 7.15422 18.5774 7.15422 18.6236 7.15422C18.6697 7.15422 18.6697 7.15422 18.7159 7.10807C18.7621 7.06191 18.762 7.01576 18.8082 7.01576C18.8544 6.96961 18.9005 6.96961 18.9467 6.92345H18.9928C18.9467 6.96961 18.9005 7.01576 18.8544 7.01576C18.8082 7.06191 18.7621 7.10807 18.7159 7.10807C18.6697 7.15422 18.6697 7.20038 18.7159 7.20038C18.7621 7.20038 18.762 7.24653 18.8082 7.24653V7.29268C18.8082 7.33884 18.8544 7.33884 18.8544 7.38499C18.9005 7.38499 18.9467 7.43114 19.039 7.43114C19.0851 7.43114 19.1313 7.43114 19.1313 7.38499L19.3621 7.15422C19.4082 7.10807 19.4544 7.01576 19.4544 6.92345C19.4544 6.8773 19.4544 6.8773 19.5005 6.83114C19.5467 6.78499 19.5467 6.78499 19.5928 6.83114C19.5928 6.83114 19.5928 6.8773 19.639 6.8773C19.6851 6.92345 19.6851 6.92345 19.7313 6.8773C19.7774 6.8773 19.7774 6.83114 19.8236 6.78499C19.8697 6.78499 19.9621 6.83114 20.0082 6.78499C20.0544 6.73884 20.1005 6.73884 20.1467 6.69268L20.2851 6.55422L20.3774 6.46191H18.2544V6.55422ZM25.8697 9.09268C25.8697 9.04653 25.8236 9.04653 25.8236 9.00038C25.8236 8.95422 25.7774 8.90807 25.7313 8.90807C25.6851 8.86191 25.5928 8.81576 25.5467 8.76961H25.4544C25.4082 8.76961 25.3621 8.76961 25.3159 8.72345C25.2697 8.72345 25.2236 8.72345 25.1774 8.6773C25.1774 8.58499 25.1774 8.53884 25.2236 8.49268C25.2236 8.40038 25.2236 8.40038 25.1313 8.35422C25.0851 8.35422 25.039 8.35422 24.9928 8.30807H24.9467C24.9467 8.30807 24.9467 8.26191 24.9928 8.26191C25.039 8.21576 25.0851 8.16961 25.0851 8.12345C25.1313 8.0773 25.1313 8.03114 25.1313 7.98499C25.0851 7.84653 25.039 7.70807 24.9928 7.61576C24.9928 7.56961 24.9467 7.56961 24.9467 7.52345L24.762 7.33884C24.7159 7.29268 24.7159 7.29268 24.6697 7.33884C24.6236 7.33884 24.5774 7.38499 24.4851 7.38499C24.439 7.38499 24.439 7.33884 24.3928 7.33884H24.3467C24.3467 7.29268 24.3467 7.24653 24.3928 7.20038C24.3467 7.20038 24.3467 7.15422 24.3467 7.15422C24.3005 7.10807 24.2082 7.06191 24.1621 7.01576C24.0236 6.8773 24.0236 6.8773 23.839 6.83114C23.7467 6.83114 23.7467 6.83114 23.7467 6.92345V7.10807C23.6544 7.15422 23.6082 7.15422 23.5159 7.10807C23.4697 7.10807 23.4697 7.06191 23.4236 7.06191C23.3774 7.06191 23.3774 7.01576 23.3774 7.01576C23.3774 6.96961 23.3313 6.96961 23.3313 6.92345C23.2851 6.83114 23.239 6.78499 23.1928 6.69268C23.1467 6.64653 23.1467 6.64653 23.1467 6.60038H22.6851V6.64653C22.639 6.64653 22.639 6.64653 22.5928 6.69268C22.5467 6.69268 22.5467 6.73884 22.5005 6.73884C22.4544 6.69268 22.4544 6.64653 22.4082 6.60038H22.3159L22.1774 6.73884C22.1313 6.69268 22.1313 6.69268 22.0851 6.73884C21.9928 6.83114 21.9467 6.92345 21.9005 7.06191C21.9005 7.06191 21.9005 7.10807 21.9467 7.10807C22.039 7.20038 22.039 7.15422 22.039 7.29268V7.33884C22.039 7.52345 22.0851 7.4773 21.9467 7.56961C21.9005 7.61576 21.8544 7.66191 21.8544 7.75422V7.80038C21.7621 7.80038 21.7159 7.84653 21.6697 7.84653C21.6236 7.89268 21.5774 7.89268 21.5313 7.93884C21.3928 7.84653 21.3005 7.84653 21.2544 7.84653C21.2082 7.84653 21.162 7.84653 21.1159 7.89268C21.0697 7.93884 20.9774 7.93884 20.9313 7.93884H20.5159C20.4236 7.93884 20.3774 7.98499 20.3774 8.0773V8.21576C20.3313 8.21576 20.3313 8.26191 20.2851 8.26191C20.2851 8.21576 20.2851 8.16961 20.239 8.0773C20.1005 8.0773 20.0082 8.03114 19.8697 8.03114C19.8236 8.0773 19.8236 8.12345 19.7774 8.12345V8.21576C19.7774 8.26191 19.8236 8.35422 19.8697 8.40038C19.8236 8.44653 19.7313 8.44653 19.6851 8.40038V8.30807C19.6851 8.30807 19.6851 8.26191 19.639 8.26191C19.5928 8.21576 19.5467 8.16961 19.4544 8.16961H19.039C18.9928 8.16961 18.9467 8.16961 18.9005 8.21576C18.8544 8.26191 18.8082 8.26191 18.8082 8.26191H18.6697C18.6236 8.26191 18.6236 8.26191 18.5774 8.30807H18.3928C18.2544 8.35422 18.1159 8.44653 17.9774 8.49268C17.8851 8.58499 17.839 8.6773 17.839 8.76961C17.839 8.81576 17.7928 8.86191 17.7467 8.90807L17.6544 9.00038V9.09268C17.6544 9.13884 17.7005 9.13884 17.7467 9.13884C17.839 9.18499 17.9313 9.18499 18.0236 9.23114C18.0697 9.23114 18.162 9.2773 18.2082 9.23114H18.2544C18.3005 9.2773 18.3467 9.32345 18.3467 9.36961C18.3928 9.41576 18.3928 9.41576 18.439 9.41576H18.6697L18.7159 9.46191C18.7621 9.46191 18.762 9.46191 18.8082 9.50807C18.8082 9.55422 18.8082 9.64653 18.8544 9.69268C18.8544 9.78499 18.9005 9.83114 18.9467 9.92345C19.039 10.0158 19.0851 10.0619 19.1774 10.1081C19.2697 10.1542 19.3159 10.2004 19.4082 10.2927L19.4544 10.3388C19.4544 10.385 19.4544 10.4311 19.5005 10.4773C19.5467 10.5235 19.5928 10.6158 19.5928 10.7081C19.639 10.8465 19.7313 10.9388 19.8236 11.0773V11.1235L19.9159 11.2158H20.0082C20.0082 11.2158 20.0544 11.2619 20.0544 11.3081H20.239C20.2851 11.3081 20.3774 11.3081 20.4236 11.2619C20.4236 11.2619 20.4697 11.2619 20.4697 11.2158C20.4697 11.2619 20.5159 11.2619 20.562 11.2619H20.7467C20.7928 11.2619 20.7928 11.2158 20.839 11.2158C20.8851 11.2619 20.9313 11.3081 20.9313 11.3542C20.9313 11.4004 20.9313 11.4004 20.9774 11.4004H21.1621C21.1621 11.4927 21.2544 11.5388 21.3005 11.5388C21.3928 11.5388 21.3928 11.5388 21.3928 11.4927V11.585C21.3928 11.6773 21.439 11.6773 21.4851 11.6311C21.5313 11.585 21.5774 11.585 21.6236 11.5388L21.6697 11.4927C21.7621 11.4927 21.8082 11.4465 21.9005 11.4465C21.9467 11.4465 21.9467 11.4004 21.9467 11.4004V11.3081C22.039 11.3081 22.039 11.3081 22.1313 11.4004C22.1313 11.4465 22.0851 11.4465 22.0851 11.4927V11.5388C22.1313 11.5388 22.1774 11.585 22.1774 11.585H22.3159C22.3621 11.5388 22.4544 11.5388 22.5005 11.4927C22.5467 11.4465 22.639 11.4465 22.6851 11.4465C22.7774 11.4927 22.8697 11.4927 22.962 11.4465C23.0082 11.4465 23.0544 11.4465 23.1005 11.4927C23.1467 11.5388 23.1928 11.5388 23.239 11.585C23.3313 11.585 23.4236 11.6311 23.5159 11.6773C23.562 11.7235 23.6082 11.7235 23.6544 11.7235C23.7467 11.7696 23.839 11.8158 23.9313 11.9081C24.0236 12.0004 24.1621 12.0927 24.2544 12.185C24.3005 12.2311 24.3005 12.2311 24.3928 12.185C24.439 12.1388 24.4851 12.0927 24.5313 12.0927C24.5774 12.0927 24.5774 12.0465 24.5774 12.0004C24.5774 11.9542 24.6236 11.9081 24.6236 11.8158C24.6697 11.6773 24.6697 11.7235 24.5774 11.6311C24.5313 11.585 24.4851 11.585 24.4851 11.5388C24.4851 11.4927 24.5313 11.4465 24.5313 11.4004C24.4851 11.3542 24.439 11.3081 24.3928 11.3081C24.3005 11.2619 24.2544 11.2158 24.2082 11.1235C24.1621 11.0773 24.1621 11.0311 24.1621 10.985C24.2544 10.985 24.3005 11.0311 24.3928 11.0773C24.439 11.1235 24.5313 11.1696 24.5774 11.2619C24.5774 11.2619 24.6236 11.3081 24.6697 11.3081C24.7159 11.3081 24.7621 11.3081 24.8544 11.2619C24.9005 11.2619 24.9005 11.2158 24.9005 11.2158C24.9005 11.1696 24.8544 11.0773 24.8544 11.0311C24.8544 10.985 24.8082 10.985 24.8082 10.985H24.6697V10.9388H24.9005V11.0311C24.9005 11.1696 24.9928 11.3081 25.0851 11.4004C25.1774 11.4927 25.1313 11.4927 25.2236 11.4004C25.3159 11.3542 25.4082 11.2619 25.4544 11.1235C25.4544 11.0773 25.5005 11.0773 25.5467 11.0311C25.639 11.0311 25.7313 10.9388 25.8236 10.8465L25.9159 10.7542C25.962 10.7081 25.962 10.7081 25.962 10.6619C26.0082 10.4311 26.0082 10.2004 26.0544 9.96961C26.0544 9.92345 26.0544 9.83115 26.0082 9.78499C26.0082 9.46191 25.9159 9.2773 25.8697 9.09268Z" fill="white"/>
<path d="M20.2399 10.8008H20.1476C20.1476 10.847 20.1937 10.847 20.2399 10.8008ZM23.563 6.55469C23.7014 6.647 23.8399 6.69315 23.9322 6.78546C23.9783 6.83161 24.0245 6.83161 24.0706 6.87776C24.2091 6.97007 24.3014 7.06238 24.4399 7.20084C24.486 7.247 24.5322 7.247 24.5783 7.247C24.6245 7.247 24.6706 7.247 24.6706 7.29315C24.763 7.3393 24.8091 7.38546 24.9014 7.47776C25.0399 7.57007 24.9937 7.57007 25.1322 7.57007H25.1783L25.2245 7.52392C25.2706 7.43161 25.3168 7.38546 25.4091 7.29315C25.4553 7.247 25.5014 7.20084 25.5014 7.15469C25.5476 7.06238 25.5937 6.92392 25.6399 6.83161C25.686 6.7393 25.686 6.69315 25.686 6.60084H23.563V6.55469ZM9.43987 26.4931C9.43987 26.5393 9.43987 26.5855 9.39372 26.5855C9.34757 26.6316 9.30141 26.6778 9.25526 26.6778H9.16295C9.1168 26.6778 9.07064 26.7239 9.02449 26.7239C8.97834 26.7239 8.97834 26.7701 8.93218 26.7701C8.93218 26.7701 8.93218 26.8162 8.88603 26.8162C8.83987 26.9085 8.79372 26.9547 8.70141 27.0008C8.65526 27.0008 8.65526 27.047 8.65526 27.047V27.0931C8.65526 27.1393 8.6091 27.1855 8.56295 27.1855H8.5168C8.47064 27.2778 8.33218 27.3239 8.23987 27.3701H8.14757C7.9168 27.4162 7.9168 27.4162 7.68603 27.3701C7.63987 27.3701 7.63987 27.3701 7.59372 27.3239C7.45526 27.2778 7.36295 27.1855 7.22449 27.1393C7.17834 27.0931 7.08603 27.0931 7.03987 27.0931C6.90141 27.0931 6.90141 27.0931 6.90141 26.9547C6.90141 26.9085 6.85526 26.8624 6.8091 26.8162C6.76295 26.7701 6.7168 26.7701 6.7168 26.6778C6.7168 26.6316 6.76295 26.5855 6.8091 26.5855V26.5393L6.76295 26.4931C6.7168 26.447 6.7168 26.447 6.76295 26.4008C6.8091 26.3547 6.8091 26.3085 6.8091 26.2624C6.8091 26.2162 6.8091 26.2162 6.85526 26.1701C6.90141 26.1239 6.94757 26.0778 7.03987 26.0778C7.08603 26.0778 7.13218 26.0778 7.13218 26.0316C7.08603 25.8932 7.08603 25.8932 7.13218 25.8008H7.22449L7.17834 25.7547C7.17834 25.7085 7.22449 25.7085 7.22449 25.7085H7.3168C7.36295 25.7085 7.4091 25.7085 7.4091 25.6162C7.45526 25.6162 7.45526 25.5701 7.50141 25.5239C7.54757 25.3855 7.54757 25.3855 7.54757 25.247C7.54757 25.1547 7.50141 25.0624 7.50141 25.0162C7.50141 24.9239 7.45526 24.8778 7.4091 24.7855C7.4091 24.7393 7.36295 24.7393 7.3168 24.7393V24.5085C7.3168 24.4624 7.3168 24.4162 7.27064 24.3701C7.17834 24.2778 7.22449 24.1855 7.22449 24.0931C7.27064 24.0008 7.3168 23.9547 7.4091 23.9547H7.50141C7.54757 24.0008 7.63987 24.0008 7.73218 23.9547C7.87064 23.9085 7.96295 23.8624 8.10141 23.8162C8.14757 23.8162 8.19372 23.7701 8.28603 23.7701H8.37834C8.42449 23.8162 8.47064 23.7701 8.5168 23.7701H8.70141C8.74757 23.7701 8.74757 23.7701 8.79372 23.8162C8.83987 23.8162 8.83987 23.8624 8.83987 23.8624C8.83987 23.9085 8.83987 23.9085 8.88603 23.9547C8.93218 24.0008 8.97834 24.047 8.97834 24.1393C8.97834 24.2316 9.02449 24.3239 9.07064 24.4162C9.07064 24.5085 9.16295 24.5085 9.2091 24.5547H9.30141C9.34757 24.6008 9.39372 24.6008 9.39372 24.6931C9.43987 24.7393 9.43987 24.8316 9.53218 24.8316C9.57834 24.8316 9.57834 24.8778 9.57834 24.9239L9.62449 24.9701C9.67064 25.0162 9.67064 25.0624 9.62449 25.1085L9.57834 25.1547C9.62449 25.2008 9.67064 25.247 9.7168 25.247C9.76295 25.247 9.76295 25.2931 9.8091 25.247C9.85526 25.2008 9.90141 25.247 9.90141 25.2931C9.90141 25.3393 9.90141 25.3855 9.85526 25.4316L9.90141 25.4778C9.90141 25.5239 9.85526 25.5701 9.85526 25.6162C9.80911 25.6624 9.8091 25.7547 9.8091 25.8008V25.847C9.8091 25.8931 9.76295 25.8931 9.7168 25.8931C9.67064 25.8931 9.67064 25.8932 9.62449 25.8008H9.53218C9.48603 25.847 9.43987 25.847 9.43987 25.9393C9.43987 25.9855 9.39372 25.9855 9.39372 26.0316C9.34757 26.0778 9.34757 26.1239 9.30141 26.1701V26.2624C9.39372 26.3085 9.48603 26.3547 9.57834 26.3547H9.67064C9.76295 26.3547 9.80911 26.4008 9.85526 26.447C9.90141 26.4931 9.90141 26.5393 9.85526 26.5393H9.8091C9.57834 26.447 9.53218 26.447 9.43987 26.4931Z" fill="white"/>
</g>
<path d="M12.439 12.0928H14.4236V26.0774H12.439V12.0928ZM7.4082 12.0928H9.39282V26.0774H7.4082V12.0928Z" fill="white"/>
<path d="M17.2383 6.55371H23.0998V29.7691H17.2383V6.55371Z" fill="#445C6C"/>
<path opacity="0.3" d="M4.4082 6.55371H26.1467V9.32294H4.4082V6.55371Z" fill="#445C6C"/>
</g>
<defs>
<clipPath id="clip0_503_613">
<rect width="30" height="30" fill="white" transform="translate(0.300781)"/>
</clipPath>
</defs>
</svg>
