<svg width="35" height="34" viewBox="0 0 35 34" fill="none" xmlns="http://www.w3.org/2000/svg">
<g clip-path="url(#clip0_503_564)">
<path d="M17.9004 6.90625C19.6608 6.90625 21.0879 5.47916 21.0879 3.71875C21.0879 1.95834 19.6608 0.53125 17.9004 0.53125C16.14 0.53125 14.7129 1.95834 14.7129 3.71875C14.7129 5.47916 16.14 6.90625 17.9004 6.90625Z" fill="#7BC2CC"/>
<path d="M17.9004 6.90625C14.3796 6.90625 11.5254 9.76044 11.5254 13.2812V13.8125H24.2754V13.2812C24.2754 9.76044 21.4212 6.90625 17.9004 6.90625Z" fill="#7BC2CC"/>
<path d="M22.1504 33.4688H13.6504V29.2188C13.6504 26.8715 15.5532 24.9688 17.9004 24.9688C20.2476 24.9688 22.1504 26.8715 22.1504 29.2188V33.4688Z" fill="#FFC574"/>
<path d="M17.9004 24.9688C19.3674 24.9688 20.5566 23.7795 20.5566 22.3125C20.5566 20.8455 19.3674 19.6562 17.9004 19.6562C16.4334 19.6562 15.2441 20.8455 15.2441 22.3125C15.2441 23.7795 16.4334 24.9688 17.9004 24.9688Z" fill="#FFC574"/>
<path d="M34.3691 33.4688H25.8691V29.2188C25.8691 26.8715 27.7719 24.9688 30.1191 24.9688C32.4664 24.9688 34.3691 26.8715 34.3691 29.2188V33.4688Z" fill="#9BCE6E"/>
<path d="M30.1191 24.9688C31.5861 24.9688 32.7754 23.7795 32.7754 22.3125C32.7754 20.8455 31.5861 19.6562 30.1191 19.6562C28.6521 19.6562 27.4629 20.8455 27.4629 22.3125C27.4629 23.7795 28.6521 24.9688 30.1191 24.9688Z" fill="#9BCE6E"/>
<path d="M9.93164 33.4688H1.43164V29.2188C1.43164 26.8715 3.33442 24.9688 5.68164 24.9688C8.02886 24.9688 9.93164 26.8715 9.93164 29.2188V33.4688Z" fill="#ED8383"/>
<path d="M5.68164 24.9688C7.14865 24.9688 8.33789 23.7795 8.33789 22.3125C8.33789 20.8455 7.14865 19.6562 5.68164 19.6562C4.21463 19.6562 3.02539 20.8455 3.02539 22.3125C3.02539 23.7795 4.21463 24.9688 5.68164 24.9688Z" fill="#ED8383"/>
<path d="M19.0674 27.3059L15.8809 31.5566L16.7306 32.1936L19.9171 27.9429L19.0674 27.3059Z" fill="#3B3344"/>
<path d="M17.3691 27.625H16.3066V28.6875H17.3691V27.625Z" fill="#3B3344"/>
<path d="M19.4941 30.8125H18.4316V31.875H19.4941V30.8125Z" fill="#3B3344"/>
<path d="M31.2862 27.3059L28.0996 31.5566L28.9493 32.1936L32.1359 27.9429L31.2862 27.3059Z" fill="#3B3344"/>
<path d="M29.5879 27.625H28.5254V28.6875H29.5879V27.625Z" fill="#3B3344"/>
<path d="M31.7129 30.8125H30.6504V31.875H31.7129V30.8125Z" fill="#3B3344"/>
<path d="M32.0455 24.8461C32.8101 24.2634 33.3066 23.346 33.3066 22.3125C33.3066 20.7362 32.1555 19.4271 30.6504 19.173V19.125C30.6504 17.6604 29.4587 16.4688 27.9941 16.4688H20.0254C19.1465 16.4688 18.4316 15.7538 18.4316 14.875V14.3438H24.2754C24.5687 14.3438 24.8066 14.1061 24.8066 13.8125V13.2812C24.8066 10.2327 22.819 7.64373 20.073 6.73046C21.0076 6.05423 21.6191 4.95773 21.6191 3.71875C21.6191 1.66844 19.951 0 17.9004 0C15.8498 0 14.1816 1.66844 14.1816 3.71875C14.1816 4.95773 14.7932 6.05423 15.7277 6.73046C12.9818 7.64373 10.9941 10.2327 10.9941 13.2812V13.8125C10.9941 14.1061 11.232 14.3438 11.5254 14.3438H17.3691V14.875C17.3691 15.7538 16.6542 16.4688 15.7754 16.4688H7.80664C6.34209 16.4688 5.15039 17.6604 5.15039 19.125V19.173C3.64531 19.4271 2.49414 20.7362 2.49414 22.3125C2.49414 23.346 2.99065 24.2634 3.75533 24.8461C2.07637 25.5888 0.900391 27.2678 0.900391 29.2188V33.4688C0.900391 33.7624 1.13828 34 1.43164 34H9.93164C10.225 34 10.4629 33.7624 10.4629 33.4688V29.2188C10.4629 27.2678 9.28692 25.5888 7.60795 24.8461C8.37263 24.2634 8.86914 23.346 8.86914 22.3125C8.86914 20.7362 7.71798 19.4271 6.21289 19.173V19.125C6.21289 18.2462 6.92779 17.5312 7.80664 17.5312H15.7754C16.3757 17.5312 16.9238 17.3235 17.3691 16.9864V19.173C15.8641 19.4271 14.7129 20.7361 14.7129 22.3125C14.7129 23.346 15.2094 24.2634 15.9741 24.8461C14.2951 25.5888 13.1191 27.2678 13.1191 29.2188V33.4688C13.1191 33.7624 13.357 34 13.6504 34H22.1504C22.4437 34 22.6816 33.7624 22.6816 33.4688V29.2188C22.6816 27.2678 21.5057 25.5888 19.8267 24.8461C20.5914 24.2634 21.0879 23.346 21.0879 22.3125C21.0879 20.7362 19.9367 19.4271 18.4316 19.173V16.9864C18.877 17.3235 19.4251 17.5312 20.0254 17.5312H27.9941C28.873 17.5312 29.5879 18.2462 29.5879 19.125V19.173C28.0828 19.4271 26.9316 20.7361 26.9316 22.3125C26.9316 23.346 27.4281 24.2634 28.1928 24.8461C26.5139 25.5888 25.3379 27.2678 25.3379 29.2188V33.4688C25.3379 33.7624 25.5758 34 25.8691 34H34.3691C34.6625 34 34.9004 33.7624 34.9004 33.4688V29.2188C34.9004 27.2678 33.7244 25.5888 32.0455 24.8461ZM15.2441 3.71875C15.2441 2.2542 16.4358 1.0625 17.9004 1.0625C19.3649 1.0625 20.5566 2.2542 20.5566 3.71875C20.5566 5.1833 19.3649 6.375 17.9004 6.375C16.4358 6.375 15.2441 5.1833 15.2441 3.71875ZM17.9004 7.4375C21.1226 7.4375 23.7441 10.059 23.7441 13.2812H12.0566C12.0566 10.059 14.6781 7.4375 17.9004 7.4375ZM9.40039 29.2188V32.9375H1.96289V29.2188C1.96289 27.1684 3.63107 25.5 5.68164 25.5C7.73221 25.5 9.40039 27.1684 9.40039 29.2188ZM7.80664 22.3125C7.80664 23.4845 6.85337 24.4375 5.68164 24.4375C4.50992 24.4375 3.55664 23.4845 3.55664 22.3125C3.55664 21.1405 4.50992 20.1875 5.68164 20.1875C6.85337 20.1875 7.80664 21.1405 7.80664 22.3125ZM21.6191 29.2188V32.9375H14.1816V29.2188C14.1816 27.1684 15.8498 25.5 17.9004 25.5C19.951 25.5 21.6191 27.1684 21.6191 29.2188ZM20.0254 22.3125C20.0254 23.4845 19.0721 24.4375 17.9004 24.4375C16.7287 24.4375 15.7754 23.4845 15.7754 22.3125C15.7754 21.1405 16.7287 20.1875 17.9004 20.1875C19.0721 20.1875 20.0254 21.1405 20.0254 22.3125ZM27.9941 22.3125C27.9941 21.1405 28.9474 20.1875 30.1191 20.1875C31.2909 20.1875 32.2441 21.1405 32.2441 22.3125C32.2441 23.4845 31.2909 24.4375 30.1191 24.4375C28.9474 24.4375 27.9941 23.4845 27.9941 22.3125ZM33.8379 32.9375H26.4004V29.2188C26.4004 27.1684 28.0686 25.5 30.1191 25.5C32.1697 25.5 33.8379 27.1684 33.8379 29.2188V32.9375Z" fill="#3B3344"/>
<path d="M6.84865 27.3059L3.66211 31.5566L4.51183 32.1936L7.69837 27.9429L6.84865 27.3059Z" fill="#3B3344"/>
<path d="M5.15039 27.625H4.08789V28.6875H5.15039V27.625Z" fill="#3B3344"/>
<path d="M7.27539 30.8125H6.21289V31.875H7.27539V30.8125Z" fill="#3B3344"/>
</g>
<defs>
<clipPath id="clip0_503_564">
<rect width="34" height="34" fill="white" transform="translate(0.900391)"/>
</clipPath>
</defs>
</svg>
