<svg width="33" height="32" viewBox="0 0 33 32" fill="none" xmlns="http://www.w3.org/2000/svg">
<path d="M14.6793 14.2596L12.5169 14.0705C12.4485 14.0639 12.3795 14.0727 12.3149 14.0962C12.2503 14.1197 12.1918 14.1573 12.1435 14.2062L8.18232 18.1286C8.12899 18.182 8.0902 18.2402 8.05626 18.308L5.24414 24.1941L9.14717 28.1359L12.5363 24.7808C12.5896 24.7274 12.6284 24.6644 12.6526 24.5965L13.6999 21.479C13.7241 21.4111 13.7629 21.3432 13.8163 21.2947L15.4308 19.6947C15.8332 19.2923 15.8381 18.6426 15.4357 18.2353C15.2427 18.0413 14.9806 17.9319 14.707 17.931C14.4333 17.9301 14.1705 18.0378 13.9763 18.2305L10.8393 21.3335L14.6793 14.2596Z" fill="#DDEBFD"/>
<path d="M9.14802 28.485C9.10098 28.4851 9.0544 28.4757 9.01107 28.4574C8.96774 28.4391 8.92857 28.4122 8.8959 28.3783L4.99287 24.4365C4.94175 24.3854 4.90776 24.3197 4.8956 24.2485C4.88344 24.1773 4.89371 24.1041 4.92499 24.0389L7.73227 18.148C7.78075 18.0462 7.84863 17.9541 7.9262 17.8716L11.8874 13.9492C12.062 13.7795 12.3044 13.6923 12.542 13.7116L14.7044 13.9007C14.8207 13.9104 14.9274 13.9783 14.9856 14.085C15.0438 14.1916 15.0389 14.3177 14.9856 14.4195L12.2898 19.4086L13.7347 17.9783C13.9965 17.7165 14.3311 17.5662 14.7141 17.5759C15.0826 17.5759 15.4317 17.7213 15.6886 17.988C15.8165 18.1168 15.9177 18.2696 15.9864 18.4376C16.0552 18.6056 16.0901 18.7855 16.0892 18.967C16.0883 19.1485 16.0516 19.328 15.9812 19.4953C15.9108 19.6626 15.8081 19.8144 15.6789 19.942L14.0644 21.542C14.0498 21.5565 14.0401 21.571 14.0353 21.5904L12.988 24.708C12.9492 24.8292 12.8765 24.9407 12.7892 25.0329L9.40014 28.388C9.32742 28.451 9.24014 28.485 9.14802 28.485ZM5.67166 24.1213L9.15287 27.6365L12.2898 24.5286C12.3044 24.5141 12.3141 24.4995 12.3189 24.4801L13.3662 21.3626C13.405 21.2413 13.4777 21.1298 13.5698 21.0377L15.1892 19.4377C15.3201 19.3116 15.388 19.1419 15.3929 18.9577C15.3929 18.7783 15.325 18.6038 15.1941 18.4777C15.1314 18.4138 15.0568 18.3629 14.9744 18.328C14.892 18.293 14.8036 18.2747 14.7141 18.2741H14.7092C14.5298 18.2741 14.3601 18.3419 14.2292 18.4729L11.0874 21.5807C11.0267 21.6392 10.9471 21.674 10.863 21.679C10.7789 21.684 10.6957 21.6588 10.6285 21.6079C10.5613 21.5571 10.5144 21.4839 10.4964 21.4016C10.4783 21.3193 10.4901 21.2333 10.5298 21.1589L14.1129 14.5553L12.4838 14.4098C12.445 14.4098 12.4111 14.4195 12.3868 14.4438L8.4256 18.3662C8.40136 18.3904 8.38196 18.4147 8.37227 18.4438L5.67166 24.1213Z" fill="#1576ED"/>
<path d="M30.7711 2.43845V7.69906C30.7711 8.23724 30.3347 8.67845 29.7965 8.67845H6.16986C5.63168 8.67845 5.19531 8.23724 5.19531 7.69906V2.43845C5.19531 1.90027 5.63168 1.46391 6.16986 1.46391H29.7965C30.3347 1.45906 30.7711 1.89542 30.7711 2.43845Z" fill="#4E6575"/>
<path d="M30.7711 2.43845V7.69906C30.7711 8.23724 30.3347 8.67845 29.7965 8.67845H6.16986C5.63168 8.67845 5.19531 8.23724 5.19531 7.69906V2.43845C5.19531 1.90027 5.63168 1.46391 6.16986 1.46391H29.7965C30.3347 1.45906 30.7711 1.89542 30.7711 2.43845Z" fill="#7CB7FF"/>
<path opacity="0.3" d="M30.7708 2.43845V6.38997H15.4593C12.7393 6.38997 10.5332 4.18391 10.5332 1.46391H29.8011C30.3344 1.45906 30.7708 1.89542 30.7708 2.43845Z" fill="white"/>
<path d="M26.7865 5.07162C26.7865 5.36253 26.6701 5.62435 26.4762 5.81828C26.2822 6.01222 26.0204 6.12859 25.7295 6.12859H10.2386C9.65679 6.12859 9.18164 5.65344 9.18164 5.07162C9.18164 4.78071 9.298 4.51889 9.49194 4.32495C9.68588 4.13101 9.9477 4.01465 10.2386 4.01465H25.7295C26.3113 4.01465 26.7865 4.4898 26.7865 5.07162Z" fill="#E2E2E2"/>
<path d="M25.729 6.47716H10.2381C9.46233 6.47716 8.83203 5.84686 8.83203 5.0711C8.83203 4.69777 8.97749 4.34383 9.24415 4.07716C9.51082 3.81049 9.86476 3.66504 10.2381 3.66504H25.729C26.5048 3.66504 27.1351 4.29534 27.1351 5.0711C27.1351 5.44443 26.9896 5.79837 26.7229 6.06504C26.4563 6.33171 26.1023 6.47716 25.729 6.47716ZM10.2381 4.36322C10.049 4.36322 9.87445 4.43595 9.7387 4.57171C9.63999 4.66984 9.57261 4.79505 9.54508 4.9315C9.51756 5.06794 9.53112 5.20949 9.58407 5.33822C9.63701 5.46695 9.72696 5.57708 9.84251 5.65467C9.95807 5.73227 10.0941 5.77384 10.2332 5.77413H25.7242C25.9132 5.77413 26.0878 5.7014 26.2235 5.56564C26.3223 5.46751 26.3896 5.3423 26.4172 5.20585C26.4447 5.06941 26.4311 4.92787 26.3782 4.79914C26.3252 4.67041 26.2353 4.56027 26.1197 4.48268C26.0042 4.40508 25.8682 4.36351 25.729 4.36322H10.2381Z" fill="#1576ED"/>
<path opacity="0.3" d="M30.7721 5.50262V2.44808C30.7721 1.9002 30.3309 1.45898 29.783 1.45898H26.4473C26.4473 2.26868 27.1018 2.92323 27.9115 2.92323H29.3176V4.04323C29.3164 4.23479 29.3532 4.42469 29.4258 4.60195C29.4985 4.77922 29.6055 4.94034 29.7407 5.07603C29.876 5.21171 30.0367 5.31927 30.2138 5.39249C30.3908 5.4657 30.5805 5.50314 30.7721 5.50262Z" fill="white"/>
<path d="M29.7969 9.03278H26.5921C26.3982 9.03278 26.2382 8.87278 26.2382 8.67884C26.2382 8.4849 26.3982 8.3249 26.5921 8.3249H29.7969C30.1412 8.3249 30.4224 8.04368 30.4224 7.69459V2.43884C30.4224 2.09459 30.1412 1.81338 29.7969 1.81338H6.17028C5.82604 1.81338 5.54483 2.09459 5.54483 2.43884V7.69944C5.54483 8.04853 5.82604 8.32975 6.17028 8.32975H24.1969C24.3909 8.32975 24.5509 8.48975 24.5509 8.68368C24.5509 8.87762 24.3909 9.03762 24.1969 9.03762H6.17028C5.43816 9.03762 4.8418 8.44126 4.8418 7.70429V2.43884C4.8418 1.70672 5.43816 1.11035 6.17028 1.11035H29.7969C30.5291 1.11035 31.1254 1.70672 31.1254 2.43884V7.69944C31.1254 8.43156 30.5291 9.03278 29.7969 9.03278Z" fill="#1576ED"/>
<path d="M11.7695 4.01465V23.1177C11.7695 23.7237 12.2592 24.2134 12.8653 24.2134H23.1004C23.7017 24.2134 24.1962 23.7237 24.1962 23.1177V4.01465H11.7695Z" fill="#7CA444"/>
<path d="M11.7695 4.01465V23.1128C11.7695 23.7189 12.2592 24.2134 12.8701 24.2134H23.1004C23.7065 24.2134 24.201 23.7189 24.201 23.1128V4.01465H11.7695Z" fill="#B9D7FF"/>
<path opacity="0.3" d="M23.1016 3.92285H15.1113V11.9907C15.1113 17.0089 19.1792 18.7301 24.1974 18.7301V5.02346C24.1974 4.4174 23.7077 3.92285 23.1016 3.92285Z" fill="white"/>
<path d="M23.1201 10.5847V6.54107C23.1201 5.70713 22.4461 5.03319 21.6122 5.03319H17.1855C16.5746 5.03319 16.0801 4.53864 16.0801 3.92773H23.1298C23.7164 3.92773 24.1964 4.40289 24.1964 4.9944V11.6659C23.9105 11.6646 23.6368 11.5502 23.435 11.3475C23.2333 11.1449 23.1201 10.8706 23.1201 10.5847Z" fill="white"/>
<path d="M23.1019 24.562H12.8667C12.0667 24.562 11.4219 23.9123 11.4219 23.1171V4.0141C11.4219 3.82016 11.5819 3.66016 11.7758 3.66016H24.2025C24.3964 3.66016 24.5564 3.82016 24.5564 4.0141V16.5765C24.5564 16.7705 24.3964 16.9305 24.2025 16.9305C24.0085 16.9305 23.8485 16.7705 23.8485 16.5765V4.36319H12.1249V23.1123C12.1249 23.5244 12.4595 23.8541 12.8667 23.8541H23.1019C23.5091 23.8541 23.8437 23.5195 23.8437 23.1123V18.6323C23.8437 18.4383 24.0037 18.2783 24.1976 18.2783C24.3916 18.2783 24.5516 18.4383 24.5516 18.6323V23.1123C24.5505 23.4964 24.3975 23.8646 24.1258 24.1362C23.8542 24.4079 23.486 24.561 23.1019 24.562Z" fill="#1576ED"/>
<path d="M19.9746 22.2157H15.994C15.8 22.2157 15.64 22.0557 15.64 21.8617C15.64 21.023 14.9564 20.3393 14.1176 20.3393C13.9237 20.3393 13.7637 20.1793 13.7637 19.9854V8.15022C13.7637 7.95629 13.9237 7.79629 14.1176 7.79629C14.9564 7.79629 15.64 7.11265 15.64 6.27386C15.64 6.07992 15.8 5.91992 15.994 5.91992H19.9746C20.1685 5.91992 20.3285 6.07992 20.3285 6.27386C20.3285 7.11265 21.0122 7.79629 21.8509 7.79629C22.0449 7.79629 22.2049 7.95629 22.2049 8.15022V19.9854C22.2049 20.1793 22.0449 20.3393 21.8509 20.3393C21.0122 20.3393 20.3285 21.023 20.3285 21.8617C20.3273 21.9552 20.2896 22.0445 20.2235 22.1106C20.1574 22.1767 20.0681 22.2144 19.9746 22.2157ZM16.3188 21.5078H19.6497C19.8 20.5623 20.5516 19.8108 21.497 19.6605V8.47507C21.0342 8.40001 20.6067 8.1812 20.2752 7.84965C19.9436 7.5181 19.7248 7.09063 19.6497 6.6278H16.3188C16.2438 7.09063 16.0249 7.5181 15.6934 7.84965C15.3619 8.1812 14.9344 8.40001 14.4716 8.47507V19.6605C15.417 19.8108 16.1685 20.5623 16.3188 21.5078Z" fill="#1576ED"/>
<path d="M17.9803 14.8415C19.0568 14.8415 19.9294 13.9689 19.9294 12.8925C19.9294 11.816 19.0568 10.9434 17.9803 10.9434C16.9039 10.9434 16.0312 11.816 16.0312 12.8925C16.0312 13.9689 16.9039 14.8415 17.9803 14.8415Z" fill="#B9D7FF"/>
<path d="M17.9808 15.1949C16.7105 15.1949 15.6777 14.1622 15.6777 12.8919C15.6777 11.6216 16.7105 10.5889 17.9808 10.5889C19.2511 10.5889 20.2838 11.6216 20.2838 12.8919C20.2838 14.1622 19.2511 15.1949 17.9808 15.1949ZM17.9808 11.2967C17.0983 11.2967 16.3808 12.0143 16.3808 12.8967C16.3808 13.7792 17.0983 14.4967 17.9808 14.4967C18.8632 14.4967 19.5808 13.7792 19.5808 12.8967C19.5808 12.0143 18.8632 11.2967 17.9808 11.2967Z" fill="#1576ED"/>
<path d="M9.14648 28.1356L12.1138 25.1974C12.4435 24.8726 12.6907 24.475 12.8362 24.0338L13.5247 21.9877C13.6604 21.5804 13.8883 21.212 14.1938 20.9114L15.4253 19.6895C15.8277 19.2871 15.8325 18.6374 15.4301 18.2301C15.2371 18.0362 14.9751 17.9267 14.7014 17.9258C14.4278 17.9249 14.165 18.0326 13.9707 18.2253L10.8386 21.3332" fill="#DDEBFD"/>
<path d="M9.14638 28.4846C9.09934 28.4848 9.05276 28.4754 9.00943 28.457C8.96611 28.4387 8.92693 28.4118 8.89426 28.378C8.86171 28.3449 8.83601 28.3057 8.81863 28.2627C8.80125 28.2197 8.79253 28.1737 8.79299 28.1273C8.79344 28.0809 8.80304 28.035 8.82125 27.9923C8.83947 27.9497 8.86592 27.911 8.89911 27.8786L11.8664 24.9404C12.1573 24.6543 12.3755 24.3004 12.5064 23.9174L13.1949 21.8713C13.35 21.4155 13.6118 20.9937 13.9512 20.6543L15.1876 19.4325C15.3185 19.3064 15.3864 19.1367 15.3912 18.9525C15.3912 18.7731 15.3234 18.5986 15.1924 18.4725C15.1298 18.4086 15.0552 18.3577 14.9728 18.3228C14.8904 18.2878 14.8019 18.2695 14.7124 18.2689H14.7076C14.5282 18.2689 14.3585 18.3367 14.2276 18.4677L11.0858 21.5755C11.0527 21.608 11.0135 21.6336 10.9705 21.651C10.9275 21.6683 10.8814 21.677 10.8351 21.6765C10.7887 21.6761 10.7429 21.6665 10.7002 21.6483C10.6575 21.6302 10.6189 21.6038 10.5864 21.5707C10.5539 21.5376 10.5283 21.4984 10.5109 21.4554C10.4936 21.4124 10.4849 21.3664 10.4854 21.32C10.4858 21.2736 10.4954 21.2278 10.5136 21.1851C10.5317 21.1424 10.5581 21.1038 10.5912 21.0713L13.733 17.9634C13.9949 17.7016 14.3294 17.5513 14.7124 17.561C15.0809 17.561 15.43 17.7064 15.687 17.9731C15.8149 18.1019 15.9161 18.2547 15.9848 18.4227C16.0535 18.5907 16.0885 18.7706 16.0876 18.9521C16.0867 19.1336 16.05 19.3131 15.9796 19.4804C15.9092 19.6477 15.8064 19.7995 15.6773 19.927L14.4458 21.1489C14.184 21.4107 13.9803 21.7355 13.8591 22.0895L13.1706 24.1355C13.0054 24.6257 12.7281 25.0706 12.3609 25.4349L9.39366 28.3731C9.32578 28.4507 9.2385 28.4846 9.14638 28.4846Z" fill="#1576ED"/>
<path d="M9.58905 29.4689L8.70177 30.3562C8.45935 30.5986 8.07147 30.5986 7.82905 30.3562L2.81086 25.338C2.57329 25.1004 2.56844 24.7077 2.81086 24.4652L3.69814 23.578C3.93571 23.3404 4.32844 23.3404 4.56602 23.5828L9.58905 28.6058C9.83147 28.8434 9.83147 29.2313 9.58905 29.4689Z" fill="#7CB7FF"/>
<path opacity="0.3" d="M9.58929 29.4691L8.96384 30.0945L4.63899 25.7697C4.40141 25.5321 4.39656 25.1394 4.63899 24.897L5.25959 24.2764L9.58444 28.6012C9.83172 28.8436 9.83172 29.2315 9.58929 29.4691Z" fill="white"/>
<path d="M8.26569 30.8898C8.00872 30.8898 7.7663 30.788 7.58206 30.6037L2.55903 25.5856C2.18085 25.2074 2.18085 24.5965 2.55903 24.2183L3.4463 23.331C3.62569 23.1516 3.86812 23.0498 4.12509 23.0498H4.12994C4.38691 23.0498 4.62933 23.1516 4.80872 23.3359L9.83175 28.3589C9.92214 28.4482 9.99399 28.5545 10.0432 28.6716C10.0924 28.7888 10.1179 28.9145 10.1184 29.0415C10.1188 29.1686 10.0942 29.2945 10.0458 29.412C9.99745 29.5295 9.92635 29.6362 9.8366 29.7262L8.94933 30.6134C8.76994 30.7928 8.52266 30.8898 8.26569 30.8898ZM4.12994 23.7528C4.06206 23.7528 3.99418 23.7771 3.94569 23.8256L3.05842 24.7128C3.00956 24.7627 2.98219 24.8297 2.98219 24.8995C2.98219 24.9693 3.00956 25.0363 3.05842 25.0862L8.08145 30.1092C8.18327 30.211 8.35297 30.211 8.45478 30.1092L9.34206 29.2219C9.39054 29.1734 9.41963 29.1104 9.41963 29.0377C9.41889 28.9671 9.39113 28.8994 9.34206 28.8486L4.31903 23.8304C4.26823 23.7813 4.20056 23.7536 4.12994 23.7528Z" fill="#1576ED"/>
</svg>
